<svg width="1231" height="439" viewBox="0 0 1231 439" fill="none" xmlns="http://www.w3.org/2000/svg">
<path d="M1211 0H20C8.95431 0 0 8.95431 0 20V419C0 430.046 8.95433 439 20 439H1211C1222.05 439 1231 430.046 1231 419V20C1231 8.95431 1222.05 0 1211 0Z" fill="#30343A"/>
<mask id="mask0_306_375" style="mask-type:luminance" maskUnits="userSpaceOnUse" x="0" y="0" width="1231" height="439">
<path d="M1211 0H20C8.95431 0 0 8.95431 0 20V419C0 430.046 8.95433 439 20 439H1211C1222.05 439 1231 430.046 1231 419V20C1231 8.95431 1222.05 0 1211 0Z" fill="white"/>
</mask>
<g mask="url(#mask0_306_375)">
<g style="mix-blend-mode:multiply" opacity="0.15">
<path d="M827.435 -326.512L281.683 245.689C274.06 253.682 274.06 266.641 281.683 274.634L296.39 290.054C304.014 298.047 316.374 298.047 323.998 290.054L869.749 -282.147C877.373 -290.14 877.373 -303.099 869.749 -311.093L855.042 -326.512C847.419 -334.505 835.058 -334.505 827.435 -326.512Z" fill="#30343A"/>
</g>
<g style="mix-blend-mode:multiply" opacity="0.3">
<path d="M772.529 -384.073L226.777 188.128C219.154 196.121 219.154 209.081 226.777 217.074L253.973 245.587C261.596 253.58 273.956 253.58 281.58 245.587L827.332 -326.614C834.955 -334.607 834.955 -347.567 827.332 -355.56L800.136 -384.073C792.513 -392.066 780.153 -392.066 772.529 -384.073Z" fill="#30343A"/>
</g>
<g style="mix-blend-mode:multiply" opacity="0.55">
<path d="M703.7 -456.232L157.948 115.969C150.325 123.962 150.325 136.922 157.948 144.915L199.16 188.123C206.783 196.116 219.143 196.116 226.767 188.123L772.519 -384.078C780.142 -392.071 780.142 -405.03 772.519 -413.023L731.307 -456.232C723.684 -464.225 711.323 -464.225 703.7 -456.232Z" fill="#30343A"/>
</g>
<g style="mix-blend-mode:multiply" opacity="0.4">
<path d="M568.965 -597.502L23.2129 -25.3003C15.5893 -17.3073 15.5893 -4.34799 23.2129 3.64505L130.093 115.705C137.716 123.698 150.077 123.698 157.7 115.705L703.452 -456.497C711.075 -464.49 711.075 -477.449 703.452 -485.442L596.572 -597.502C588.948 -605.495 576.588 -605.495 568.965 -597.502Z" fill="#30343A"/>
</g>
<g style="mix-blend-mode:multiply" opacity="0.2">
<path d="M-4.38864 3.63773L-54.3282 55.9975C-61.9517 63.9906 -61.9517 76.9498 -54.3282 84.9429L491.424 657.144C499.047 665.137 511.407 665.137 519.031 657.144L568.97 604.784C576.594 596.791 576.594 583.832 568.97 575.839L23.2187 3.63772C15.5952 -4.35532 3.23492 -4.35531 -4.38864 3.63773Z" fill="#30343A"/>
</g>
<g style="mix-blend-mode:multiply" opacity="0.35">
<path d="M-81.9423 84.9604L-120.939 125.847C-128.563 133.84 -128.563 146.799 -120.939 154.792L424.813 726.994C432.436 734.987 444.796 734.987 452.42 726.994L491.417 686.107C499.04 678.114 499.04 665.155 491.417 657.162L-54.3349 84.9604C-61.9585 76.9674 -74.3187 76.9674 -81.9423 84.9604Z" fill="#30343A"/>
</g>
<g style="mix-blend-mode:multiply" opacity="0.5">
<path d="M-148.551 154.776L-169.44 176.678C-177.064 184.671 -177.064 197.63 -169.44 205.623L376.311 777.824C383.935 785.817 396.295 785.817 403.919 777.824L424.808 755.923C432.431 747.93 432.431 734.971 424.808 726.978L-120.944 154.776C-128.568 146.783 -140.928 146.783 -148.551 154.776Z" fill="#30343A"/>
</g>
<g style="mix-blend-mode:multiply" opacity="0.65">
<path d="M376.093 778.169L-169.767 205.854C-177.36 197.892 -189.672 197.892 -197.266 205.854C-204.859 213.816 -204.859 226.724 -197.266 234.686L348.594 807.001C356.188 814.962 368.5 814.962 376.093 807.001C383.687 799.039 383.687 786.131 376.093 778.169Z" fill="#30343A"/>
</g>
<g style="mix-blend-mode:multiply" opacity="0.1">
<path d="M1237.46 214.598C1237.42 196.832 1215.97 187.927 1203.36 200.446L987.544 414.776C974.863 427.37 983.808 449.005 1001.68 448.967L1217.91 448.508C1228.96 448.484 1237.89 439.513 1237.87 428.469L1237.46 214.598Z" fill="#30343A"/>
</g>
<g style="mix-blend-mode:multiply" opacity="0.15">
<path d="M1237.59 286.003C1237.56 268.238 1216.1 259.333 1203.5 271.851L1059.74 414.619C1047.06 427.212 1056 448.847 1073.87 448.81L1217.91 448.507C1228.96 448.483 1237.89 439.512 1237.87 428.468L1237.59 286.003Z" fill="#30343A"/>
</g>
</g>
<path d="M256.068 375.705C247.299 377.208 238.292 378 229.091 378C141.829 378 71.0908 307.262 71.0908 219.999C71.0908 196.619 76.1697 174.419 85.2844 154.456" stroke="#7F87A8" stroke-width="2" stroke-miterlimit="10"/>
<path d="M372.897 154.456C382.011 174.419 387.09 196.619 387.09 219.999C387.09 279.846 353.811 331.93 304.749 358.741" stroke="#7F87A8" stroke-width="2" stroke-miterlimit="10"/>
<path d="M253.19 63.8271C301.972 71.2944 343.409 101.063 366.761 142.414" stroke="#7F87A8" stroke-width="2" stroke-miterlimit="10"/>
<path d="M95.9448 134.903C124.023 91.0635 173.164 62 229.09 62" stroke="#7F87A8" stroke-width="2" stroke-miterlimit="10"/>
<path d="M403.292 211.417L360.517 282.529L356.129 286.306L317.209 262.897L361.898 188.613L365.229 188.519L403.292 211.417Z" fill="#5ABC80"/>
<g style="mix-blend-mode:multiply" opacity="0.5">
<path d="M365.228 188.519L361.897 188.613L400.809 212.022L403.291 211.417L365.228 188.519Z" fill="#5ABC80"/>
</g>
<path d="M361.909 188.63L317.223 262.912L356.139 286.323L400.825 212.041L361.909 188.63Z" fill="#78DCA8"/>
<path d="M359.236 200.82L326.748 254.825C329.273 257.811 330.266 261.846 329.395 265.659L347.97 276.831C350.934 274.278 354.955 273.263 358.775 274.09L391.263 220.078C388.738 217.086 387.753 213.064 388.623 209.244L370.048 198.072C367.077 200.626 363.063 201.64 359.236 200.813V200.82Z" fill="#D6FACB"/>
<path d="M367.026 224.136C374.386 228.56 376.76 238.114 372.335 245.48C367.904 252.84 358.35 255.214 350.991 250.789C343.632 246.365 341.258 236.812 345.682 229.445C350.113 222.086 359.66 219.704 367.026 224.136Z" fill="#78DCA8"/>
<path d="M365.422 242.797C364.393 244.343 363.12 245.66 361.595 246.739L357.983 244.566C358.918 243.984 359.825 243.286 360.703 242.473C361.587 241.66 362.249 240.883 362.695 240.128C363.069 239.516 363.264 239.02 363.285 238.638C363.314 238.264 363.148 237.969 362.803 237.761C362.566 237.617 362.3 237.603 362.005 237.703C361.717 237.811 361.321 238.041 360.818 238.394C360.321 238.754 359.674 239.25 358.882 239.89C357.983 240.61 357.156 241.12 356.393 241.43C355.631 241.739 354.904 241.861 354.228 241.811C353.552 241.753 352.811 241.48 352.034 241.012C350.84 240.293 350.127 239.351 349.919 238.171C349.71 236.998 349.984 235.595 350.753 233.955L349.264 233.063L350.617 230.811L352.084 231.696C353.034 230.301 354.264 229.063 355.767 227.977L358.091 231.135C356.494 232.243 355.336 233.401 354.602 234.617C354.25 235.2 354.077 235.646 354.077 235.97C354.077 236.293 354.214 236.531 354.494 236.696C354.732 236.84 354.983 236.869 355.242 236.797C355.501 236.718 355.854 236.531 356.293 236.228C356.739 235.926 357.314 235.473 358.019 234.876C359.465 233.682 360.731 232.962 361.818 232.718C362.897 232.473 363.983 232.675 365.062 233.322C366.278 234.056 367.033 235.034 367.328 236.264C367.63 237.495 367.422 238.905 366.717 240.494L368.81 241.753L367.458 243.998L365.422 242.775V242.797Z" fill="#D6FACB"/>
<path d="M373.746 206.26L366.888 217.665L368.793 218.811L375.651 207.405L373.746 206.26Z" fill="#78DCA8"/>
<path d="M378.374 209.051L371.517 220.458L373.416 221.6L380.273 210.193L378.374 209.051Z" fill="#78DCA8"/>
<path d="M344.999 254.08L338.141 265.485L340.039 266.627L346.898 255.222L344.999 254.08Z" fill="#78DCA8"/>
<path d="M349.625 256.865L342.763 268.268L344.661 269.41L351.524 258.007L349.625 256.865Z" fill="#78DCA8"/>
<g style="mix-blend-mode:multiply" opacity="0.3">
<path d="M400.81 212.022L358.919 281.666L323.568 259.02L369.135 192.972L400.81 212.022Z" fill="#5A5A5A"/>
</g>
<path d="M417.938 213.633L367.869 279.803L363.099 283.098L326.885 255.696L379.192 186.57L382.523 186.829L417.938 213.633Z" fill="#5ABC80"/>
<g style="mix-blend-mode:multiply" opacity="0.5">
<path d="M382.522 186.829L379.191 186.57L415.406 213.971L417.938 213.633L382.522 186.829Z" fill="#5ABC80"/>
</g>
<path d="M379.2 186.595L326.886 255.716L363.099 283.124L415.413 214.002L379.2 186.595Z" fill="#78DCA8"/>
<path d="M375.257 198.425L337.223 248.682C339.417 251.919 339.971 256.027 338.705 259.739L355.992 272.818C359.214 270.587 363.315 270.005 367.034 271.242L405.069 220.985C402.874 217.748 402.32 213.64 403.587 209.935L386.3 196.857C383.077 199.087 378.976 199.663 375.257 198.432V198.425Z" fill="#D6FACB"/>
<path d="M380.53 222.432C387.378 227.612 388.731 237.367 383.544 244.215C378.364 251.064 368.609 252.417 361.761 247.237C354.912 242.057 353.567 232.302 358.747 225.446C363.926 218.598 373.681 217.245 380.53 222.432Z" fill="#78DCA8"/>
<path d="M376.955 240.819C375.768 242.244 374.358 243.423 372.732 244.344L369.373 241.798C370.358 241.316 371.337 240.719 372.301 239.999C373.265 239.287 374.005 238.582 374.531 237.884C374.962 237.316 375.214 236.841 375.279 236.467C375.344 236.093 375.214 235.784 374.89 235.539C374.667 235.366 374.408 235.323 374.099 235.395C373.797 235.467 373.387 235.661 372.847 235.956C372.315 236.258 371.617 236.683 370.768 237.237C369.797 237.855 368.919 238.273 368.135 238.503C367.337 238.733 366.61 238.783 365.934 238.654C365.265 238.524 364.567 238.179 363.84 237.632C362.725 236.791 362.128 235.769 362.042 234.582C361.956 233.395 362.38 232.028 363.315 230.489L361.934 229.438L363.517 227.345L364.884 228.381C365.97 227.093 367.33 225.993 368.941 225.072L370.912 228.46C369.207 229.388 367.934 230.424 367.078 231.554C366.668 232.093 366.445 232.525 366.409 232.841C366.373 233.165 366.481 233.417 366.74 233.611C366.963 233.784 367.207 233.841 367.473 233.798C367.74 233.748 368.106 233.589 368.581 233.338C369.056 233.079 369.675 232.69 370.437 232.179C372.006 231.143 373.344 230.561 374.444 230.431C375.545 230.302 376.595 230.611 377.602 231.374C378.739 232.23 379.387 233.287 379.552 234.539C379.717 235.791 379.365 237.172 378.487 238.675L380.437 240.15L378.854 242.244L376.962 240.812L376.955 240.819Z" fill="#D6FACB"/>
<path d="M389.127 205.415L381.097 216.029L382.87 217.37L390.9 206.757L389.127 205.415Z" fill="#78DCA8"/>
<path d="M395.183 209.98L387.147 220.598L385.377 219.26L393.413 208.642L395.183 209.98Z" fill="#78DCA8"/>
<path d="M355.462 249.905L347.43 260.517L349.197 261.854L357.229 251.242L355.462 249.905Z" fill="#78DCA8"/>
<path d="M359.754 253.141L351.723 263.753L353.495 265.095L361.527 254.483L359.754 253.141Z" fill="#78DCA8"/>
<path d="M434.347 226.561L371.746 281.033L366.4 283.278L336.589 249.013L401.982 192.109L405.19 193.051L434.347 226.561Z" fill="#5ABC80"/>
<g style="mix-blend-mode:multiply" opacity="0.5">
<path d="M405.191 193.051L401.982 192.109L431.794 226.374L434.348 226.561L405.191 193.051Z" fill="#5ABC80"/>
</g>
<path d="M401.976 192.095L336.582 249.001L366.395 283.261L431.789 226.355L401.976 192.095Z" fill="#78DCA8"/>
<path d="M395.695 202.907L348.143 244.279C349.625 247.898 349.323 252.041 347.323 255.401L361.552 271.753C365.164 270.235 369.3 270.508 372.681 272.479L420.226 231.107C418.744 227.488 419.046 223.352 421.053 219.985L406.824 203.633C403.212 205.151 399.076 204.878 395.695 202.907Z" fill="#D6FACB"/>
<path d="M395.925 227.481C401.565 233.962 400.882 243.782 394.4 249.422C387.926 255.062 378.099 254.379 372.466 247.897C366.826 241.415 367.509 231.588 373.984 225.956C380.466 220.316 390.285 220.999 395.925 227.481Z" fill="#78DCA8"/>
<path d="M388.645 244.747C387.192 245.898 385.566 246.754 383.79 247.323L381.02 244.143C382.085 243.877 383.164 243.495 384.25 242.985C385.336 242.481 386.214 241.949 386.869 241.373C387.415 240.898 387.753 240.488 387.89 240.143C388.027 239.791 387.969 239.467 387.696 239.158C387.516 238.949 387.264 238.848 386.955 238.855C386.646 238.87 386.199 238.963 385.617 239.15C385.034 239.33 384.264 239.604 383.315 239.978C382.243 240.381 381.3 240.611 380.473 240.675C379.653 240.733 378.919 240.632 378.293 240.366C377.667 240.1 377.049 239.625 376.452 238.935C375.538 237.884 375.157 236.762 375.322 235.582C375.481 234.402 376.178 233.151 377.409 231.834L376.265 230.525L378.243 228.798L379.372 230.093C380.703 229.057 382.257 228.259 384.027 227.69L385.264 231.41C383.408 231.978 381.948 232.719 380.876 233.654C380.365 234.1 380.056 234.474 379.962 234.776C379.862 235.086 379.919 235.352 380.135 235.597C380.315 235.805 380.538 235.913 380.811 235.92C381.077 235.927 381.473 235.856 381.991 235.704C382.509 235.546 383.192 235.294 384.041 234.949C385.789 234.258 387.214 233.971 388.322 234.064C389.43 234.165 390.394 234.69 391.221 235.64C392.156 236.712 392.573 237.877 392.473 239.143C392.379 240.402 391.746 241.683 390.588 242.978L392.192 244.826L390.207 246.546L388.653 244.762L388.645 244.747Z" fill="#D6FACB"/>
<path d="M407.838 212.6L397.798 221.337L399.257 223.014L409.297 214.277L407.838 212.6Z" fill="#78DCA8"/>
<path d="M411.37 216.615L401.323 225.355L402.777 227.027L412.824 218.287L411.37 216.615Z" fill="#78DCA8"/>
<path d="M365.753 249.183L355.713 257.92L357.173 259.597L367.212 250.86L365.753 249.183Z" fill="#78DCA8"/>
<path d="M369.284 253.216L359.238 261.956L360.692 263.627L370.739 254.888L369.284 253.216Z" fill="#78DCA8"/>
<g style="mix-blend-mode:multiply" opacity="0.3">
<path d="M432.434 228.216L366.401 283.278L347.919 247.488L412.19 203.835L432.434 228.216Z" fill="#5A5A5A"/>
</g>
<path d="M449.095 241.216L377.199 282.653L371.523 283.832L348.848 244.482L423.952 201.196L426.916 202.728L449.095 241.216Z" fill="#5ABC80"/>
<g style="mix-blend-mode:multiply" opacity="0.5">
<path d="M426.917 202.728L423.953 201.196L446.628 240.539L449.095 241.216L426.917 202.728Z" fill="#5ABC80"/>
</g>
<path d="M446.628 240.539L371.523 283.825L348.848 244.482L423.952 201.196L446.628 240.539Z" fill="#78DCA8"/>
<path d="M415.708 210.583L361.099 242.057C361.854 245.898 360.768 249.898 358.157 252.812L368.976 271.595C372.811 270.804 376.818 271.861 379.76 274.444L434.369 242.971C433.607 239.136 434.7 235.136 437.312 232.216L426.485 213.432C422.65 214.231 418.643 213.166 415.701 210.583H415.708Z" fill="#D6FACB"/>
<path d="M411.213 234.74C415.501 242.186 412.947 251.689 405.501 255.984C398.063 260.272 388.552 257.718 384.257 250.272C379.97 242.833 382.524 233.323 389.969 229.036C397.408 224.748 406.918 227.302 411.206 234.74H411.213Z" fill="#78DCA8"/>
<path d="M400.752 250.286C399.105 251.135 397.35 251.667 395.494 251.883L393.393 248.229C394.494 248.171 395.623 247.999 396.788 247.718C397.954 247.437 398.911 247.071 399.666 246.639C400.292 246.279 400.702 245.941 400.903 245.625C401.105 245.308 401.105 244.97 400.903 244.617C400.759 244.373 400.544 244.229 400.234 244.179C399.932 244.135 399.472 244.143 398.86 244.207C398.249 244.279 397.443 244.394 396.443 244.581C395.314 244.768 394.335 244.819 393.522 244.718C392.702 244.617 392.012 244.38 391.443 243.992C390.882 243.61 390.364 243.028 389.911 242.236C389.213 241.028 389.062 239.855 389.443 238.726C389.825 237.596 390.746 236.503 392.213 235.445L391.343 233.942L393.616 232.632L394.472 234.114C395.976 233.359 397.659 232.87 399.501 232.654L400.004 236.546C398.069 236.74 396.493 237.186 395.263 237.898C394.681 238.236 394.307 238.546 394.148 238.826C393.99 239.107 393.997 239.387 394.155 239.668C394.292 239.905 394.494 240.056 394.753 240.121C395.019 240.179 395.414 240.179 395.954 240.128C396.493 240.078 397.206 239.963 398.112 239.783C399.954 239.445 401.414 239.423 402.479 239.733C403.544 240.042 404.392 240.74 405.018 241.833C405.73 243.064 405.918 244.294 405.579 245.517C405.241 246.74 404.378 247.869 402.99 248.912L404.213 251.034L401.939 252.344L400.759 250.293L400.752 250.286Z" fill="#D6FACB"/>
<path d="M425.75 222.384L414.22 229.03L415.33 230.956L426.86 224.31L425.75 222.384Z" fill="#78DCA8"/>
<path d="M428.446 227.059L416.916 233.706L418.026 235.631L429.557 228.985L428.446 227.059Z" fill="#78DCA8"/>
<path d="M377.424 250.271L365.894 256.917L367 258.837L378.53 252.191L377.424 250.271Z" fill="#78DCA8"/>
<path d="M380.116 254.943L368.584 261.587L369.691 263.507L381.222 256.862L380.116 254.943Z" fill="#78DCA8"/>
<path d="M316.303 158.471H144.397V300.759H316.303V158.471Z" fill="#93A8C3"/>
<path d="M328.87 298.234H131.828V303.169H328.87V298.234Z" fill="#BFD0E2"/>
<path d="M344.136 302.803H116.571V312.083H344.136V302.803Z" fill="#93A8C3"/>
<path d="M180.69 195.426H167.546V222.439H180.69V195.426Z" fill="#3D4763"/>
<path d="M180.69 239.92H167.546V266.941H180.69V239.92Z" fill="#3D4763"/>
<path d="M293.159 195.426H280.016V222.439H293.159V195.426Z" fill="#3D4763"/>
<path d="M293.159 239.92H280.016V266.941H293.159V239.92Z" fill="#3D4763"/>
<path d="M236.421 195.426H223.278V222.439H236.421V195.426Z" fill="#3D4763"/>
<path d="M242.435 251.769H217.717V298.234H242.435V251.769Z" fill="#728396"/>
<path d="M229.062 253.999H219.422V288.242H229.062V253.999Z" fill="#3D4763"/>
<path d="M240.738 253.999H231.098V288.242H240.738V253.999Z" fill="#3D4763"/>
<g style="mix-blend-mode:multiply" opacity="0.3">
<path d="M275.434 173.196H309.137V298.234H289.44V208.929C289.44 208.929 289.491 173.196 275.434 173.196Z" fill="#93A8C3"/>
</g>
<g style="mix-blend-mode:multiply" opacity="0.3">
<path d="M225.537 173.196H259.24V298.234H239.543V208.929C239.543 208.929 239.594 173.196 225.537 173.196Z" fill="#93A8C3"/>
</g>
<g style="mix-blend-mode:multiply" opacity="0.3">
<path d="M163.813 173.196H197.517V298.234H177.82V208.929C177.82 208.929 178.309 173.196 163.813 173.196Z" fill="#93A8C3"/>
</g>
<path d="M323.899 173.196H298.138V177.757H323.899V173.196Z" fill="#8899AF"/>
<path d="M322.979 186.152H299.059V190.713H322.979V186.152Z" fill="#BFD0E2"/>
<path d="M322.518 177.757H299.519V186.397H322.518V177.757Z" fill="#ABBCD0"/>
<path d="M322.518 190.477H299.519V280.48H322.518V190.477Z" fill="#EAEEF8"/>
<path d="M306.073 275.782C306.073 276.516 305.504 277.113 304.807 277.113C304.109 277.113 303.541 276.509 303.541 275.782V195.167C303.541 194.434 304.109 193.836 304.807 193.836C305.504 193.836 306.073 194.434 306.073 195.167V275.782Z" fill="#D2DAE7"/>
<path d="M312.289 275.782C312.289 276.516 311.72 277.113 311.022 277.113C310.325 277.113 309.756 276.509 309.756 275.782V195.167C309.756 194.434 310.325 193.836 311.022 193.836C311.72 193.836 312.289 194.434 312.289 195.167V275.782Z" fill="#D2DAE7"/>
<path d="M318.497 275.782C318.497 276.516 317.929 277.113 317.231 277.113C316.533 277.113 315.965 276.509 315.965 275.782V195.167C315.965 194.434 316.533 193.836 317.231 193.836C317.929 193.836 318.497 194.434 318.497 195.167V275.782Z" fill="#D2DAE7"/>
<path d="M324.82 292.717H297.217V298.235H324.82V292.717Z" fill="#D2DAE7"/>
<path d="M322.979 279.76H299.059V284.314H322.979V279.76Z" fill="#BFD0E2"/>
<path d="M322.518 284.077H299.519V292.717H322.518V284.077Z" fill="#ABBCD0"/>
<path d="M274.549 173.196H248.787V177.757H274.549V173.196Z" fill="#8899AF"/>
<path d="M273.627 186.152H249.708V190.713H273.627V186.152Z" fill="#BFD0E2"/>
<path d="M273.167 177.757H250.168V186.397H273.167V177.757Z" fill="#ABBCD0"/>
<path d="M273.167 190.477H250.168V280.48H273.167V190.477Z" fill="#EAEEF8"/>
<path d="M256.723 275.782C256.723 276.516 256.154 277.113 255.457 277.113C254.759 277.113 254.19 276.509 254.19 275.782V195.167C254.19 194.434 254.759 193.836 255.457 193.836C256.154 193.836 256.723 194.434 256.723 195.167V275.782Z" fill="#D2DAE7"/>
<path d="M262.938 275.782C262.938 276.516 262.37 277.113 261.672 277.113C260.974 277.113 260.406 276.509 260.406 275.782V195.167C260.406 194.434 260.974 193.836 261.672 193.836C262.37 193.836 262.938 194.434 262.938 195.167V275.782Z" fill="#D2DAE7"/>
<path d="M269.147 275.782C269.147 276.516 268.578 277.113 267.88 277.113C267.183 277.113 266.614 276.509 266.614 275.782V195.167C266.614 194.434 267.183 193.836 267.88 193.836C268.578 193.836 269.147 194.434 269.147 195.167V275.782Z" fill="#D2DAE7"/>
<path d="M275.477 292.717H247.874V298.235H275.477V292.717Z" fill="#D2DAE7"/>
<path d="M273.627 279.76H249.708V284.314H273.627V279.76Z" fill="#BFD0E2"/>
<path d="M273.167 284.077H250.168V292.717H273.167V284.077Z" fill="#ABBCD0"/>
<path d="M211.912 173.196H186.15V177.757H211.912V173.196Z" fill="#8899AF"/>
<path d="M210.983 186.152H187.063V190.713H210.983V186.152Z" fill="#BFD0E2"/>
<path d="M210.53 177.757H187.531V186.397H210.53V177.757Z" fill="#ABBCD0"/>
<path d="M210.53 190.477H187.531V280.48H210.53V190.477Z" fill="#EAEEF8"/>
<path d="M194.085 275.782C194.085 276.516 193.517 277.113 192.819 277.113C192.121 277.113 191.553 276.509 191.553 275.782V195.167C191.553 194.434 192.121 193.836 192.819 193.836C193.517 193.836 194.085 194.434 194.085 195.167V275.782Z" fill="#D2DAE7"/>
<path d="M200.293 275.782C200.293 276.516 199.725 277.113 199.027 277.113C198.329 277.113 197.761 276.509 197.761 275.782V195.167C197.761 194.434 198.329 193.836 199.027 193.836C199.725 193.836 200.293 194.434 200.293 195.167V275.782Z" fill="#D2DAE7"/>
<path d="M206.501 275.782C206.501 276.516 205.932 277.113 205.234 277.113C204.537 277.113 203.968 276.509 203.968 275.782V195.167C203.968 194.434 204.537 193.836 205.234 193.836C205.932 193.836 206.501 194.434 206.501 195.167V275.782Z" fill="#D2DAE7"/>
<path d="M212.832 292.717H185.229V298.235H212.832V292.717Z" fill="#D2DAE7"/>
<path d="M210.983 279.76H187.063V284.314H210.983V279.76Z" fill="#BFD0E2"/>
<path d="M210.53 284.077H187.531V292.717H210.53V284.077Z" fill="#ABBCD0"/>
<path d="M162.561 173.196H136.799V177.757H162.561V173.196Z" fill="#8899AF"/>
<path d="M161.633 186.152H137.713V190.713H161.633V186.152Z" fill="#BFD0E2"/>
<path d="M161.18 177.757H138.181V186.397H161.18V177.757Z" fill="#ABBCD0"/>
<path d="M161.18 190.477H138.181V280.48H161.18V190.477Z" fill="#EAEEF8"/>
<path d="M144.734 275.782C144.734 276.516 144.166 277.113 143.468 277.113C142.77 277.113 142.202 276.509 142.202 275.782V195.167C142.202 194.434 142.77 193.836 143.468 193.836C144.166 193.836 144.734 194.434 144.734 195.167V275.782Z" fill="#D2DAE7"/>
<path d="M150.942 275.782C150.942 276.516 150.374 277.113 149.676 277.113C148.978 277.113 148.41 276.509 148.41 275.782V195.167C148.41 194.434 148.978 193.836 149.676 193.836C150.374 193.836 150.942 194.434 150.942 195.167V275.782Z" fill="#D2DAE7"/>
<path d="M157.151 275.782C157.151 276.516 156.583 277.113 155.885 277.113C155.187 277.113 154.619 276.509 154.619 275.782V195.167C154.619 194.434 155.187 193.836 155.885 193.836C156.583 193.836 157.151 194.434 157.151 195.167V275.782Z" fill="#D2DAE7"/>
<path d="M163.482 292.717H135.878V298.235H163.482V292.717Z" fill="#D2DAE7"/>
<path d="M161.633 279.76H137.713V284.314H161.633V279.76Z" fill="#BFD0E2"/>
<path d="M161.18 284.077H138.181V292.717H161.18V284.077Z" fill="#ABBCD0"/>
<path d="M323.159 166.355H137.541V173.197H323.159V166.355Z" fill="#BFD0E2"/>
<g style="mix-blend-mode:multiply" opacity="0.3">
<path d="M296.958 173.197C296.958 173.197 295.893 167.355 268.858 166.355H323.151V173.197H296.958Z" fill="#BFD0E2"/>
</g>
<path d="M314.597 121.703H146.101V136.414H314.597V121.703Z" fill="#BFD0E2"/>
<g style="mix-blend-mode:multiply" opacity="0.3">
<path d="M314.597 136.421V121.889H297.375C297.375 121.889 308.979 124.63 307.878 136.421H314.597Z" fill="#BFD0E2"/>
</g>
<path d="M316.957 115.94H143.741V121.89H316.957V115.94Z" fill="#E2ECF9"/>
<path d="M230.35 96.9697L148.015 136.421H230.35H312.684L230.35 96.9697Z" fill="#F2F5FC"/>
<path d="M322.474 141.198H138.224V159.506H322.474V141.198Z" fill="#ABBCD0"/>
<g style="mix-blend-mode:multiply" opacity="0.3">
<path d="M297.591 159.506C297.591 159.506 292.994 146.456 259.945 143.262H322.475V159.506H297.591Z" fill="#ABBCD0"/>
</g>
<path d="M230.35 102.17L165.813 133.083H230.35H294.879L230.35 102.17Z" fill="#8899AF"/>
<g style="mix-blend-mode:multiply" opacity="0.3">
<path d="M254.694 133.083C254.694 133.083 268.7 124.134 242.435 107.955L294.886 133.083H254.694Z" fill="#8899AF"/>
</g>
<path d="M324.482 136.421H136.217V143.27H324.482V136.421Z" fill="#D2DAE7"/>
<g style="mix-blend-mode:multiply" opacity="0.8">
<path d="M324.482 141.205H136.217V143.269H324.482V141.205Z" fill="#D2DAE7"/>
</g>
<path d="M324.482 159.506H136.217V166.348H324.482V159.506Z" fill="#D2DAE7"/>
<g style="mix-blend-mode:multiply" opacity="0.8">
<path d="M324.482 164.046H136.217V166.355H324.482V164.046Z" fill="#D2DAE7"/>
</g>
<path d="M414.076 103.804C414.076 125.983 396.098 143.968 373.919 143.968C351.74 143.968 333.755 125.983 333.755 103.804C333.755 81.6251 351.733 63.6475 373.912 63.6475C396.091 63.6475 414.068 81.6323 414.068 103.811L414.076 103.804Z" fill="#ED683D"/>
<path d="M370.156 94.811C370.156 103.415 364.718 107.911 358.768 107.911C352.502 107.911 347.567 103.228 347.567 95.5088C347.567 87.7897 352.056 82.6029 359.085 82.6029C366.113 82.6029 370.156 87.7897 370.156 94.8182V94.811ZM354.718 95.257C354.718 99.559 356.171 102.66 358.955 102.66C361.739 102.66 363.006 99.8755 363.006 95.257C363.006 91.0773 361.869 87.8545 358.891 87.8545C355.912 87.8545 354.718 91.1421 354.718 95.257ZM359.272 125.119L382.875 82.5957H388.062L364.401 125.119H359.279H359.272ZM399.767 111.897C399.767 120.5 394.328 124.997 388.379 124.997C382.429 124.997 377.242 120.313 377.178 112.594C377.178 105.257 381.674 99.6885 388.695 99.6885C395.716 99.6885 399.767 104.875 399.767 111.897ZM384.393 112.343C384.328 116.645 385.782 119.745 388.566 119.745C391.35 119.745 392.616 116.961 392.616 112.343C392.616 108.17 391.537 104.94 388.566 104.94C385.594 104.94 384.393 108.228 384.393 112.343Z" fill="white"/>
<g style="mix-blend-mode:multiply" opacity="0.4">
<path d="M396.644 70.7045C401.09 77.1718 403.701 84.9988 403.701 93.4373C403.701 115.616 385.724 133.594 363.538 133.594C355.099 133.594 347.272 130.982 340.812 126.537C348.049 137.061 360.178 143.967 373.918 143.967C396.097 143.967 414.075 125.983 414.075 103.804C414.075 90.0633 407.169 77.9415 396.644 70.6973V70.7045Z" fill="#ED5921"/>
</g>
<path d="M129.038 316.917C129.527 318.917 128.29 320.953 126.29 321.442L55.3144 338.736C53.3145 339.225 51.2786 337.988 50.7894 335.988L30.1069 251.114C29.6177 249.114 30.855 247.078 32.8549 246.589L103.83 229.288C105.83 228.798 107.866 230.036 108.348 232.036L129.038 316.917Z" fill="#ED683D"/>
<path d="M103.89 236.897L36.6187 253.296L41.2734 272.391L108.545 255.992L103.89 236.897Z" fill="#3D4763"/>
<path d="M59.6374 284.458C59.882 285.458 59.2633 286.48 58.2634 286.724L47.3286 289.393C46.3287 289.638 45.3143 289.019 45.0697 288.019L43.5158 281.645C43.2712 280.645 43.8899 279.631 44.8899 279.386L55.8246 276.717C56.8246 276.473 57.8461 277.092 58.0835 278.092L59.6374 284.465V284.458Z" fill="#EAEEF8"/>
<path d="M77.1697 280.184C77.4142 281.184 76.7956 282.199 75.7956 282.443L64.8608 285.105C63.8609 285.35 62.8394 284.731 62.602 283.731L61.0481 277.35C60.8035 276.35 61.4221 275.336 62.4221 275.091L73.3641 272.422C74.364 272.177 75.3784 272.796 75.623 273.796L77.1768 280.177L77.1697 280.184Z" fill="#EAEEF8"/>
<path d="M94.6934 275.911C94.938 276.911 94.3194 277.925 93.3194 278.177L82.3846 280.839C81.3847 281.084 80.3631 280.465 80.1186 279.465L78.5647 273.084C78.3201 272.084 78.9387 271.07 79.9387 270.825L90.8735 268.156C91.8734 267.911 92.8878 268.537 93.1324 269.53L94.6863 275.904L94.6934 275.911Z" fill="#EAEEF8"/>
<path d="M112.333 271.609C112.578 272.609 111.959 273.623 110.959 273.875L100.024 276.544C99.0245 276.789 98.0029 276.17 97.7655 275.17L96.2116 268.796C95.967 267.796 96.5857 266.782 97.5857 266.537L108.52 263.869C109.52 263.631 110.542 264.243 110.779 265.243L112.333 271.616V271.609Z" fill="#EAEEF8"/>
<path d="M63.0694 298.551C63.314 299.558 62.6953 300.572 61.6954 300.817L50.7606 303.486C49.7607 303.73 48.7391 303.112 48.4945 302.112L46.9406 295.731C46.696 294.731 47.3147 293.717 48.3147 293.472L59.2494 290.803C60.2494 290.558 61.2637 291.177 61.5083 292.177L63.0622 298.551H63.0694Z" fill="#EAEEF8"/>
<path d="M80.6012 294.277C80.8458 295.277 80.2271 296.299 79.2271 296.543L68.2924 299.212C67.2924 299.457 66.2709 298.838 66.0263 297.831L64.4724 291.457C64.2278 290.457 64.8465 289.436 65.8464 289.191L76.7812 286.53C77.7811 286.285 78.8027 286.904 79.0473 287.904L80.6012 294.277Z" fill="#EAEEF8"/>
<path d="M98.1324 290.004C98.377 291.004 97.7583 292.026 96.7584 292.27L85.8164 294.932C84.8165 295.177 83.7949 294.558 83.5575 293.558L82.0036 287.184C81.759 286.184 82.3777 285.163 83.3777 284.918L94.3124 282.249C95.3124 282.005 96.3267 282.623 96.5713 283.623L98.1252 289.997L98.1324 290.004Z" fill="#EAEEF8"/>
<path d="M115.772 285.702C116.016 286.702 115.398 287.724 114.398 287.968L103.463 290.637C102.463 290.882 101.441 290.263 101.204 289.263L99.6501 282.89C99.4055 281.89 100.024 280.868 101.024 280.631L111.959 277.962C112.959 277.717 113.973 278.343 114.218 279.343L115.772 285.717V285.702Z" fill="#EAEEF8"/>
<path d="M66.5075 312.644C66.7521 313.637 66.1335 314.658 65.1335 314.903L54.1987 317.564C53.1988 317.809 52.1772 317.19 51.9398 316.19L50.386 309.809C50.1414 308.809 50.76 307.788 51.76 307.55L62.6948 304.882C63.6947 304.637 64.7163 305.256 64.9537 306.263L66.5075 312.637V312.644Z" fill="#EAEEF8"/>
<path d="M84.0388 308.37C84.2834 309.37 83.6647 310.392 82.6648 310.637L71.73 313.298C70.73 313.536 69.7157 312.924 69.4711 311.924L67.9172 305.55C67.6726 304.551 68.2913 303.529 69.2912 303.284L80.226 300.615C81.226 300.371 82.2475 300.99 82.4849 301.989L84.0388 308.37Z" fill="#EAEEF8"/>
<path d="M101.564 304.097C101.808 305.097 101.189 306.111 100.19 306.356L89.2476 309.025C88.2476 309.269 87.2333 308.651 86.9887 307.651L85.4348 301.277C85.1902 300.277 85.8089 299.256 86.8088 299.011L97.7436 296.342C98.7435 296.097 99.7579 296.716 100.002 297.716L101.556 304.09L101.564 304.097Z" fill="#EAEEF8"/>
<path d="M87.4708 322.464C87.7154 323.464 87.0967 324.485 86.0967 324.723L57.6304 331.658C56.6304 331.902 55.6161 331.284 55.3715 330.284L53.8176 323.91C53.573 322.91 54.1917 321.895 55.1916 321.651L83.658 314.709C84.6579 314.464 85.6795 315.083 85.9169 316.083L87.4708 322.457V322.464Z" fill="#EFAD9A"/>
<path d="M105.002 318.19C105.247 319.19 104.628 320.204 103.628 320.449L92.6934 323.118C91.6934 323.362 90.6719 322.744 90.4345 321.744L88.8806 315.363C88.636 314.363 89.2547 313.341 90.2546 313.104L101.197 310.442C102.197 310.198 103.211 310.816 103.455 311.816L105.009 318.197L105.002 318.19Z" fill="#EAEEF8"/>
<path d="M122.643 313.895C122.887 314.888 122.269 315.909 121.269 316.154L110.334 318.823C109.334 319.068 108.312 318.449 108.075 317.449L103.09 296.982C102.845 295.982 103.464 294.968 104.464 294.723L115.398 292.054C116.398 291.81 117.42 292.428 117.664 293.428L122.65 313.895H122.643Z" fill="#78DCA8"/>
<path d="M379.228 340.578C378.638 343.621 375.667 345.635 372.624 345.045L257.744 322.801C254.701 322.211 252.687 319.24 253.284 316.197L266.427 248.308C267.017 245.265 269.988 243.251 273.031 243.848L387.911 266.084C390.954 266.674 392.968 269.645 392.371 272.689L379.235 340.578H379.228Z" fill="#4563CD"/>
<path d="M284.227 243.826L283.166 249.307L297.715 252.125L298.777 246.644L284.227 243.826Z" fill="#BFD0E2"/>
<path d="M362.983 259.083L361.921 264.564L376.47 267.384L377.532 261.904L362.983 259.083Z" fill="#BFD0E2"/>
<path d="M387.904 266.092L273.024 243.855C269.981 243.265 267.003 245.273 266.42 248.316L262.111 270.559C262.111 270.559 313.389 310.622 388.062 294.939L392.371 272.696C392.961 269.653 390.954 266.682 387.911 266.092H387.904Z" fill="#3550A0"/>
<path d="M313.173 281.227L311.979 287.4L335.47 291.945L336.664 285.772L313.173 281.227Z" fill="#BFD0E2"/>
<path d="M347.714 247.625L345.723 257.923L350.604 258.866L352.594 248.568L347.714 247.625Z" fill="#BFD0E2"/>
<g style="mix-blend-mode:multiply">
<path d="M350.806 248.218L348.826 258.519L350.592 258.858L352.572 248.558L350.806 248.218Z" fill="#BFD0E2"/>
</g>
<path d="M312.309 240.761L310.319 251.06L315.2 252.003L317.19 241.705L312.309 240.761Z" fill="#BFD0E2"/>
<g style="mix-blend-mode:multiply">
<path d="M315.412 241.361L313.43 251.661L314.864 251.937L316.846 241.637L315.412 241.361Z" fill="#BFD0E2"/>
</g>
<path d="M356.783 249.172C356.61 250.085 355.718 250.69 354.805 250.51L309.555 241.747C308.641 241.568 308.037 240.676 308.217 239.769L309.418 233.568C309.598 232.654 310.49 232.05 311.404 232.23L356.653 240.992C357.567 241.172 358.164 242.057 357.992 242.978L356.79 249.172H356.783Z" fill="#3550A0"/>
<g style="mix-blend-mode:multiply" opacity="0.4">
<path d="M356.646 240.992L355.366 240.74L354.323 246.15C354.143 247.064 353.251 247.668 352.337 247.488L308.368 238.978L308.217 239.769C308.037 240.675 308.641 241.575 309.555 241.747L354.805 250.509C355.718 250.689 356.61 250.085 356.783 249.171L357.984 242.977C358.164 242.064 357.56 241.172 356.646 240.992Z" fill="#3550A0"/>
</g>
<g style="mix-blend-mode:multiply" opacity="0.4">
<path d="M328.482 336.499L372.617 345.045C375.66 345.635 378.631 343.628 379.221 340.578L387.292 298.867C375.839 344.707 332.496 337.247 328.475 336.491L328.482 336.499Z" fill="#4563CD"/>
</g>
<path d="M241.42 336.176L241.549 343.082C241.593 347.837 227.075 352.118 209.112 351.765C191.149 351.412 176.552 346.549 176.509 341.794L176.452 335.715C176.452 335.715 209.062 328.047 241.413 336.176H241.42Z" fill="#EBB941"/>
<path d="M241.5 337.009C241.544 341.764 227.019 346.045 209.063 345.692C191.107 345.34 176.503 340.477 176.46 335.722C176.403 329.132 190.927 325.449 208.89 325.808C226.846 326.161 241.443 329.909 241.5 337.009Z" fill="#F6DF5C"/>
<path d="M234.745 336.117C234.781 339.836 223.141 343.196 208.746 342.922C194.351 342.649 182.647 338.843 182.618 335.124C182.575 329.973 194.214 327.096 208.609 327.369C223.005 327.649 234.702 330.577 234.745 336.117Z" fill="#EBB941"/>
<path d="M234.751 336.405C234.78 339.966 223.14 343.174 208.745 342.923C194.35 342.664 182.653 339.038 182.624 335.477C182.581 330.549 194.228 327.794 208.616 328.046C223.011 328.305 234.708 331.103 234.751 336.405Z" fill="#F2D031"/>
<path d="M218.278 340.519L216.415 339.541C214.574 339.742 212.408 339.778 210.847 339.67L208.984 338.239C210.768 338.361 212.948 338.397 214.775 338.181C216.314 338.001 216.919 337.627 216.106 337.167C215.315 336.721 213.919 336.541 211.207 336.455C207.07 336.34 203.394 335.922 200.696 334.584C198.035 333.289 198.222 332.074 201.495 331.498L198.603 329.973L202.135 329.779L204.696 331.174C207.027 331.081 208.847 331.196 210.293 331.361L212.12 333.03C211.063 332.93 209.027 332.721 206.747 332.894C204.581 333.066 204.639 333.52 205.416 333.915C206.286 334.376 207.962 334.563 211.308 334.75C215.696 334.958 218.142 335.498 219.904 336.555C221.559 337.548 221.372 338.555 218.847 339.138L220.768 340.181L218.286 340.527L218.278 340.519Z" fill="#E7AD42"/>
<path d="M241.039 328.815C241.068 333.578 226.529 337.808 208.573 337.398C190.617 336.988 176.028 332.081 175.999 327.319C175.963 320.729 190.502 317.096 208.458 317.506C226.414 317.916 240.996 321.722 241.032 328.808L241.039 328.815Z" fill="#F6DF5C"/>
<path d="M240.96 327.988L241.075 334.894C241.104 339.649 226.572 343.887 208.609 343.477C190.653 343.066 176.064 338.153 176.035 333.398L175.999 327.319C175.999 327.319 208.631 319.758 240.96 327.981V327.988Z" fill="#EBB941"/>
<path d="M241.039 328.815C241.068 333.578 226.529 337.808 208.573 337.398C190.617 336.988 176.028 332.081 175.999 327.319C175.963 320.729 190.502 317.096 208.458 317.506C226.414 317.916 240.996 321.722 241.032 328.808L241.039 328.815Z" fill="#F6DF5C"/>
<path d="M234.284 327.902C234.306 331.621 222.652 334.945 208.264 334.621C193.876 334.297 182.179 330.463 182.157 326.737C182.129 321.586 193.783 318.744 208.178 319.068C222.573 319.384 234.256 322.356 234.292 327.902H234.284Z" fill="#EBB941"/>
<path d="M234.292 328.196C234.313 331.75 222.659 334.923 208.264 334.628C193.869 334.326 182.186 330.657 182.165 327.096C182.136 322.168 193.79 319.449 208.185 319.751C222.573 320.053 234.263 322.887 234.292 328.204V328.196Z" fill="#F2D031"/>
<path d="M217.803 332.247L215.94 331.262C214.098 331.456 211.933 331.485 210.372 331.377L208.515 329.931C210.3 330.06 212.479 330.103 214.307 329.895C215.846 329.715 216.45 329.348 215.637 328.888C214.853 328.442 213.458 328.247 210.746 328.161C206.602 328.032 202.933 327.6 200.242 326.255C197.581 324.945 197.775 323.73 201.048 323.161L198.156 321.622L201.688 321.442L204.25 322.837C206.58 322.751 208.393 322.873 209.846 323.046L211.674 324.722C210.616 324.622 208.587 324.406 206.3 324.571C204.134 324.73 204.192 325.183 204.962 325.586C205.832 326.046 207.508 326.24 210.854 326.442C215.242 326.672 217.688 327.211 219.443 328.269C221.09 329.269 220.903 330.276 218.378 330.852L220.292 331.902L217.81 332.24L217.803 332.247Z" fill="#E7AD42"/>
<path d="M241.378 319.154L241.622 326.053C241.738 330.808 227.292 335.326 209.329 335.254C191.366 335.182 176.69 330.549 176.575 325.794L176.424 319.715C176.424 319.715 208.912 311.536 241.378 319.154Z" fill="#EBB941"/>
<path d="M241.478 319.974C241.593 324.729 227.14 329.247 209.177 329.175C191.214 329.103 176.538 324.477 176.423 319.715C176.265 313.125 190.732 309.219 208.688 309.291C226.651 309.356 241.298 312.881 241.478 319.974Z" fill="#F6DF5C"/>
<path d="M234.709 319.198C234.802 322.917 223.213 326.456 208.818 326.406C194.423 326.356 182.661 322.744 182.567 319.025C182.445 313.881 194.034 310.817 208.437 310.86C222.832 310.91 234.572 313.651 234.709 319.198Z" fill="#EBB941"/>
<path d="M234.716 319.485C234.802 323.046 223.213 326.442 208.818 326.406C194.423 326.377 182.668 322.931 182.582 319.37C182.459 314.442 194.063 311.507 208.458 311.536C222.853 311.572 234.594 314.176 234.723 319.485H234.716Z" fill="#F2D031"/>
<path d="M218.307 323.859L216.429 322.909C214.595 323.139 212.429 323.211 210.861 323.125L208.976 321.715C210.767 321.808 212.94 321.816 214.767 321.564C216.3 321.362 216.897 320.981 216.077 320.535C215.285 320.104 213.882 319.938 211.17 319.902C207.027 319.852 203.351 319.485 200.631 318.197C197.948 316.945 198.121 315.722 201.387 315.089L198.466 313.607L201.991 313.363L204.581 314.715C206.904 314.586 208.732 314.672 210.178 314.816L212.034 316.456C210.976 316.377 208.94 316.197 206.66 316.406C204.494 316.607 204.566 317.06 205.343 317.449C206.221 317.895 207.904 318.053 211.249 318.19C215.645 318.334 218.098 318.83 219.868 319.859C221.537 320.823 221.371 321.837 218.853 322.456L220.789 323.463L218.314 323.852L218.307 323.859Z" fill="#E7AD42"/>
<path d="M240.759 307.903L241.162 314.802C241.385 319.557 227.04 324.398 209.084 324.729C191.121 325.067 176.345 320.765 176.122 316.017L175.834 309.946C175.834 309.946 208.128 301.025 240.766 307.91L240.759 307.903Z" fill="#EBB941"/>
<path d="M240.874 308.723C241.097 313.478 226.752 318.319 208.789 318.65C190.826 318.989 176.049 314.694 175.826 309.939C175.51 303.356 189.891 299.119 207.854 298.788C225.81 298.45 240.536 301.637 240.874 308.723Z" fill="#F6DF5C"/>
<path d="M234.083 308.097C234.263 311.809 222.76 315.615 208.365 315.895C193.97 316.176 182.129 312.823 181.956 309.104C181.711 303.96 193.236 300.637 207.631 300.356C222.026 300.076 233.824 302.558 234.083 308.097Z" fill="#EBB941"/>
<path d="M234.098 308.384C234.271 311.938 222.76 315.593 208.365 315.895C193.97 316.19 182.143 313.01 181.971 309.456C181.74 304.536 193.265 301.327 207.66 301.032C222.055 300.737 233.846 303.075 234.098 308.384Z" fill="#F2D031"/>
<path d="M217.796 313.125L215.897 312.219C214.069 312.492 211.904 312.607 210.336 312.564L208.422 311.205C210.213 311.255 212.386 311.212 214.206 310.924C215.731 310.679 216.328 310.291 215.494 309.867C214.688 309.449 213.285 309.32 210.58 309.341C206.437 309.385 202.753 309.104 200.005 307.874C197.293 306.68 197.43 305.457 200.681 304.759L197.732 303.342L201.25 303.011L203.868 304.306C206.192 304.119 208.012 304.169 209.465 304.277L211.357 305.874C210.3 305.816 208.257 305.68 205.983 305.946C203.825 306.198 203.904 306.644 204.696 307.018C205.588 307.442 207.264 307.565 210.616 307.629C215.012 307.672 217.479 308.118 219.271 309.097C220.961 310.025 220.817 311.039 218.314 311.723L220.27 312.687L217.803 313.125H217.796Z" fill="#E7AD42"/>
<path d="M274.52 334.031C273.081 345.16 260.326 354.181 245.802 349.21C231.795 345.224 221.4 332.038 223.155 320.017C224.896 308.104 236.766 297.629 251.521 307.528C264.6 312.204 275.937 322.981 274.52 334.031Z" fill="#EBB941"/>
<path d="M275.081 331.405C273.642 342.534 262.046 348.649 248.665 344.837C234.658 340.844 224.263 327.657 226.026 315.644C227.767 303.723 240.723 298.27 254.391 303.155C267.463 307.824 276.505 320.356 275.081 331.398V331.405Z" fill="#F6DF5C"/>
<path d="M269.859 329.463C268.751 338.038 259.823 342.75 249.5 339.808C238.709 336.729 230.702 326.571 232.054 317.319C233.4 308.14 243.378 303.932 253.917 307.701C263.988 311.298 270.959 320.96 269.859 329.463Z" fill="#EBB941"/>
<path d="M269.283 329.743C268.578 338.088 260.19 342.778 249.96 339.843C238.083 336.419 230.4 326.829 231.86 317.024C233.191 308.06 243.291 304.492 253.543 308.521C263.154 312.305 269.966 321.621 269.283 329.743Z" fill="#F2D031"/>
<path d="M246.399 336.311L247.176 333.304C245.082 332.664 243.183 331.563 242.162 330.556L244.068 327.11C245.205 328.175 246.895 329.326 248.953 329.851C250.751 330.319 252.161 329.945 252.485 328.679C252.794 327.477 251.981 326.456 249.852 325.067C246.766 323.06 244.859 320.88 245.658 317.816C246.377 315.039 248.902 313.37 252.456 313.578L253.226 310.579L256.326 311.377L255.607 314.154C257.693 314.794 259.003 315.607 259.916 316.377L258.082 319.708C257.348 319.147 256.089 318.046 253.809 317.456C251.758 316.924 250.859 317.636 250.629 318.521C250.355 319.557 251.291 320.506 253.715 322.218C257.132 324.52 258.197 326.65 257.463 329.491C256.737 332.304 254.125 334.189 250.334 333.88L249.507 337.103L246.406 336.304L246.399 336.311Z" fill="#E7AD42"/>
<g style="mix-blend-mode:multiply" opacity="0.75">
<path d="M228.983 302.263C229.235 304.946 217.588 308.212 202.977 309.572C188.366 310.931 176.316 309.852 176.072 307.169C175.82 304.486 187.467 301.212 202.078 299.86C216.689 298.5 228.739 299.579 228.983 302.263Z" fill="#D4D4D5"/>
</g>
<path d="M232.385 286.479L233.745 293.112C234.63 297.687 221.4 304.392 204.034 307.24C186.661 310.089 171.733 307.996 170.849 303.42L169.712 297.572C169.712 297.572 199.768 284.393 232.378 286.479H232.385Z" fill="#EBB941"/>
<path d="M232.615 287.264C233.5 291.839 220.271 298.544 202.904 301.392C185.538 304.241 170.611 302.148 169.719 297.573C168.496 291.235 181.841 285.113 199.207 282.264C216.573 279.415 231.299 280.437 232.615 287.264Z" fill="#F6DF5C"/>
<path d="M225.946 287.608C226.637 291.191 216.019 296.486 202.098 298.781C188.178 301.068 176.229 299.485 175.538 295.91C174.582 290.954 185.286 286.112 199.207 283.817C213.12 281.529 224.91 282.27 225.946 287.608Z" fill="#EBB941"/>
<path d="M226.004 287.881C226.666 291.306 216.019 296.471 202.106 298.773C188.193 301.082 176.273 299.665 175.611 296.241C174.69 291.5 185.423 286.774 199.336 284.464C213.249 282.162 225.011 282.781 226.004 287.881Z" fill="#F2D031"/>
<path d="M210.861 294.774L208.89 294.163C207.156 294.688 205.07 295.105 203.552 295.278L201.502 294.22C203.243 294.026 205.343 293.681 207.07 293.141C208.523 292.695 209.034 292.227 208.171 291.933C207.336 291.645 205.955 291.717 203.329 292.12C199.315 292.745 195.703 292.99 192.869 292.184C190.071 291.415 190.042 290.206 193.092 289.062L190.035 288.105L193.401 287.292L196.121 288.177C198.344 287.674 200.121 287.458 201.545 287.364L203.602 288.645C202.566 288.738 200.567 288.897 198.401 289.472C196.344 290.019 196.48 290.443 197.301 290.695C198.221 290.983 199.869 290.868 203.128 290.451C207.394 289.882 209.847 289.969 211.732 290.666C213.501 291.328 213.501 292.328 211.17 293.343L213.199 293.997L210.875 294.774H210.861Z" fill="#E7AD42"/>
<path d="M667.53 116.676C667.53 108.352 669.894 101.929 674.621 97.4071C679.451 92.8854 685.669 90.6245 693.273 90.6245C700.878 90.6245 707.044 92.8854 711.771 97.4071C716.499 101.929 718.862 108.352 718.862 116.676C718.862 125 716.499 131.423 711.771 135.945C707.044 140.466 700.878 142.727 693.273 142.727C685.669 142.727 679.451 140.466 674.621 135.945C669.894 131.423 667.53 125 667.53 116.676ZM772.198 92.3202L712.85 200.842H687.416L746.763 92.3202H772.198ZM693.119 106.04C688.186 106.04 685.72 109.585 685.72 116.676C685.72 123.664 688.186 127.158 693.119 127.158C695.483 127.158 697.333 126.285 698.669 124.538C700.005 122.791 700.673 120.17 700.673 116.676C700.673 109.585 698.155 106.04 693.119 106.04ZM740.906 176.486C740.906 168.162 743.269 161.739 747.997 157.217C752.724 152.696 758.89 150.435 766.495 150.435C774.099 150.435 780.265 152.696 784.993 157.217C789.72 161.739 792.084 168.162 792.084 176.486C792.084 184.81 789.72 191.233 784.993 195.755C780.265 200.277 774.099 202.538 766.495 202.538C758.89 202.538 752.724 200.277 747.997 195.755C743.269 191.233 740.906 184.81 740.906 176.486ZM766.341 165.85C763.977 165.85 762.127 166.723 760.791 168.47C759.558 170.217 758.941 172.889 758.941 176.486C758.941 183.474 761.408 186.968 766.341 186.968C768.704 186.968 770.554 186.095 771.89 184.348C773.226 182.601 773.894 179.98 773.894 176.486C773.894 172.992 773.226 170.372 771.89 168.625C770.554 166.775 768.704 165.85 766.341 165.85Z" fill="#FFDD00"/>
<path d="M588.229 140.415C578.569 135.277 573.739 127.209 573.739 116.213C573.739 110.664 575.178 105.628 578.055 101.107C580.933 96.4822 585.3 92.834 591.158 90.1621C597.016 87.3874 604.21 86 612.739 86C621.269 86 628.411 87.3874 634.166 90.1621C640.024 92.834 644.391 96.4822 647.269 101.107C650.146 105.628 651.585 110.664 651.585 116.213C651.585 121.763 650.249 126.593 647.577 130.704C645.008 134.814 641.514 138.051 637.095 140.415C642.644 143.087 646.909 146.787 649.889 151.514C652.87 156.138 654.36 161.585 654.36 167.854C654.36 175.15 652.51 181.47 648.81 186.814C645.111 192.055 640.075 196.063 633.704 198.838C627.435 201.613 620.447 203 612.739 203C605.032 203 597.992 201.613 591.621 198.838C585.352 196.063 580.368 192.055 576.668 186.814C572.968 181.47 571.119 175.15 571.119 167.854C571.119 161.482 572.609 155.984 575.589 151.36C578.569 146.632 582.783 142.984 588.229 140.415ZM625.996 120.221C625.996 116.008 624.763 112.771 622.297 110.51C619.933 108.146 616.747 106.964 612.739 106.964C608.731 106.964 605.494 108.146 603.028 110.51C600.664 112.874 599.482 116.162 599.482 120.375C599.482 124.383 600.715 127.569 603.182 129.933C605.648 132.194 608.834 133.324 612.739 133.324C616.644 133.324 619.83 132.142 622.297 129.779C624.763 127.415 625.996 124.229 625.996 120.221ZM612.739 151.822C607.909 151.822 604.004 153.158 601.024 155.83C598.044 158.399 596.553 161.996 596.553 166.621C596.553 170.937 597.992 174.482 600.87 177.257C603.85 180.032 607.806 181.419 612.739 181.419C617.672 181.419 621.526 180.032 624.3 177.257C627.178 174.482 628.617 170.937 628.617 166.621C628.617 162.099 627.127 158.502 624.146 155.83C621.269 153.158 617.466 151.822 612.739 151.822Z" fill="#FFDD00"/>
<path d="M509 112.822V88.312H551.7V200.842H524.261V112.822H509Z" fill="#FFDD00"/>
<path d="M528.88 271.68H517.76L515.92 277H510.04L520.08 249.04H526.6L536.64 277H530.72L528.88 271.68ZM527.36 267.2L523.32 255.52L519.28 267.2H527.36ZM552.673 254.52C555.313 254.52 557.446 255.36 559.073 257.04C560.699 258.693 561.513 261.013 561.513 264V277H555.913V264.76C555.913 263 555.473 261.653 554.593 260.72C553.713 259.76 552.513 259.28 550.993 259.28C549.446 259.28 548.219 259.76 547.313 260.72C546.433 261.653 545.993 263 545.993 264.76V277H540.393V254.84H545.993V257.6C546.739 256.64 547.686 255.893 548.833 255.36C550.006 254.8 551.286 254.52 552.673 254.52ZM579.118 254.52C581.758 254.52 583.891 255.36 585.518 257.04C587.145 258.693 587.958 261.013 587.958 264V277H582.358V264.76C582.358 263 581.918 261.653 581.038 260.72C580.158 259.76 578.958 259.28 577.438 259.28C575.891 259.28 574.665 259.76 573.758 260.72C572.878 261.653 572.438 263 572.438 264.76V277H566.838V254.84H572.438V257.6C573.185 256.64 574.131 255.893 575.278 255.36C576.451 254.8 577.731 254.52 579.118 254.52ZM614.203 254.84V277H608.563V274.2C607.843 275.16 606.897 275.92 605.723 276.48C604.577 277.013 603.323 277.28 601.963 277.28C600.23 277.28 598.697 276.92 597.363 276.2C596.03 275.453 594.977 274.373 594.203 272.96C593.457 271.52 593.083 269.813 593.083 267.84V254.84H598.683V267.04C598.683 268.8 599.123 270.16 600.003 271.12C600.883 272.053 602.083 272.52 603.603 272.52C605.15 272.52 606.363 272.053 607.243 271.12C608.123 270.16 608.563 268.8 608.563 267.04V254.84H614.203ZM618.289 265.84C618.289 263.6 618.729 261.613 619.609 259.88C620.515 258.147 621.729 256.813 623.249 255.88C624.795 254.947 626.515 254.48 628.409 254.48C630.062 254.48 631.502 254.813 632.729 255.48C633.982 256.147 634.982 256.987 635.729 258V254.84H641.369V277H635.729V273.76C635.009 274.8 634.009 275.667 632.729 276.36C631.475 277.027 630.022 277.36 628.369 277.36C626.502 277.36 624.795 276.88 623.249 275.92C621.729 274.96 620.515 273.613 619.609 271.88C618.729 270.12 618.289 268.107 618.289 265.84ZM635.729 265.92C635.729 264.56 635.462 263.4 634.929 262.44C634.395 261.453 633.675 260.707 632.769 260.2C631.862 259.667 630.889 259.4 629.849 259.4C628.809 259.4 627.849 259.653 626.969 260.16C626.089 260.667 625.369 261.413 624.809 262.4C624.275 263.36 624.009 264.507 624.009 265.84C624.009 267.173 624.275 268.347 624.809 269.36C625.369 270.347 626.089 271.107 626.969 271.64C627.875 272.173 628.835 272.44 629.849 272.44C630.889 272.44 631.862 272.187 632.769 271.68C633.675 271.147 634.395 270.4 634.929 269.44C635.462 268.453 635.729 267.28 635.729 265.92ZM652.438 247.4V277H646.838V247.4H652.438ZM673.102 258.28C673.822 257.107 674.756 256.187 675.902 255.52C677.076 254.853 678.409 254.52 679.902 254.52V260.4H678.422C676.662 260.4 675.329 260.813 674.422 261.64C673.542 262.467 673.102 263.907 673.102 265.96V277H667.502V254.84H673.102V258.28ZM704.274 265.44C704.274 266.24 704.221 266.96 704.114 267.6H687.914C688.047 269.2 688.607 270.453 689.594 271.36C690.581 272.267 691.794 272.72 693.234 272.72C695.314 272.72 696.794 271.827 697.674 270.04H703.714C703.074 272.173 701.847 273.933 700.034 275.32C698.221 276.68 695.994 277.36 693.354 277.36C691.221 277.36 689.301 276.893 687.594 275.96C685.914 275 684.594 273.653 683.634 271.92C682.701 270.187 682.234 268.187 682.234 265.92C682.234 263.627 682.701 261.613 683.634 259.88C684.567 258.147 685.874 256.813 687.554 255.88C689.234 254.947 691.167 254.48 693.354 254.48C695.461 254.48 697.341 254.933 698.994 255.84C700.674 256.747 701.967 258.04 702.874 259.72C703.807 261.373 704.274 263.28 704.274 265.44ZM698.474 263.84C698.447 262.4 697.927 261.253 696.914 260.4C695.901 259.52 694.661 259.08 693.194 259.08C691.807 259.08 690.634 259.507 689.674 260.36C688.741 261.187 688.167 262.347 687.954 263.84H698.474ZM714.882 259.44V270.16C714.882 270.907 715.055 271.453 715.402 271.8C715.775 272.12 716.388 272.28 717.242 272.28H719.842V277H716.322C711.602 277 709.242 274.707 709.242 270.12V259.44H706.602V254.84H709.242V249.36H714.882V254.84H719.842V259.44H714.882ZM744.789 254.84V277H739.149V274.2C738.429 275.16 737.483 275.92 736.309 276.48C735.163 277.013 733.909 277.28 732.549 277.28C730.816 277.28 729.283 276.92 727.949 276.2C726.616 275.453 725.563 274.373 724.789 272.96C724.043 271.52 723.669 269.813 723.669 267.84V254.84H729.269V267.04C729.269 268.8 729.709 270.16 730.589 271.12C731.469 272.053 732.669 272.52 734.189 272.52C735.736 272.52 736.949 272.053 737.829 271.12C738.709 270.16 739.149 268.8 739.149 267.04V254.84H744.789ZM755.915 258.28C756.635 257.107 757.568 256.187 758.715 255.52C759.888 254.853 761.221 254.52 762.715 254.52V260.4H761.235C759.475 260.4 758.141 260.813 757.235 261.64C756.355 262.467 755.915 263.907 755.915 265.96V277H750.315V254.84H755.915V258.28ZM778.767 254.52C781.407 254.52 783.54 255.36 785.167 257.04C786.793 258.693 787.607 261.013 787.607 264V277H782.007V264.76C782.007 263 781.567 261.653 780.687 260.72C779.807 259.76 778.607 259.28 777.087 259.28C775.54 259.28 774.313 259.76 773.407 260.72C772.527 261.653 772.087 263 772.087 264.76V277H766.487V254.84H772.087V257.6C772.833 256.64 773.78 255.893 774.927 255.36C776.1 254.8 777.38 254.52 778.767 254.52ZM801.412 277.36C799.599 277.36 797.972 277.04 796.532 276.4C795.092 275.733 793.945 274.84 793.092 273.72C792.265 272.6 791.812 271.36 791.732 270H797.372C797.479 270.853 797.892 271.56 798.612 272.12C799.359 272.68 800.279 272.96 801.372 272.96C802.439 272.96 803.265 272.747 803.852 272.32C804.465 271.893 804.772 271.347 804.772 270.68C804.772 269.96 804.399 269.427 803.652 269.08C802.932 268.707 801.772 268.307 800.172 267.88C798.519 267.48 797.159 267.067 796.092 266.64C795.052 266.213 794.145 265.56 793.372 264.68C792.625 263.8 792.252 262.613 792.252 261.12C792.252 259.893 792.599 258.773 793.292 257.76C794.012 256.747 795.025 255.947 796.332 255.36C797.665 254.773 799.225 254.48 801.012 254.48C803.652 254.48 805.759 255.147 807.332 256.48C808.905 257.787 809.772 259.56 809.932 261.8H804.572C804.492 260.92 804.119 260.227 803.452 259.72C802.812 259.187 801.945 258.92 800.852 258.92C799.839 258.92 799.052 259.107 798.492 259.48C797.959 259.853 797.692 260.373 797.692 261.04C797.692 261.787 798.065 262.36 798.812 262.76C799.559 263.133 800.719 263.52 802.292 263.92C803.892 264.32 805.212 264.733 806.252 265.16C807.292 265.587 808.185 266.253 808.932 267.16C809.705 268.04 810.105 269.213 810.132 270.68C810.132 271.96 809.772 273.107 809.052 274.12C808.359 275.133 807.345 275.933 806.012 276.52C804.705 277.08 803.172 277.36 801.412 277.36ZM832.94 254.48C834.593 254.48 836.047 254.813 837.3 255.48C838.553 256.12 839.54 256.96 840.26 258V254.84H845.9V277.16C845.9 279.213 845.487 281.04 844.66 282.64C843.833 284.267 842.593 285.547 840.94 286.48C839.287 287.44 837.287 287.92 834.94 287.92C831.793 287.92 829.207 287.187 827.18 285.72C825.18 284.253 824.047 282.253 823.78 279.72H829.34C829.633 280.733 830.26 281.533 831.22 282.12C832.207 282.733 833.393 283.04 834.78 283.04C836.407 283.04 837.727 282.547 838.74 281.56C839.753 280.6 840.26 279.133 840.26 277.16V273.72C839.54 274.76 838.54 275.627 837.26 276.32C836.007 277.013 834.567 277.36 832.94 277.36C831.073 277.36 829.367 276.88 827.82 275.92C826.273 274.96 825.047 273.613 824.14 271.88C823.26 270.12 822.82 268.107 822.82 265.84C822.82 263.6 823.26 261.613 824.14 259.88C825.047 258.147 826.26 256.813 827.78 255.88C829.327 254.947 831.047 254.48 832.94 254.48ZM840.26 265.92C840.26 264.56 839.993 263.4 839.46 262.44C838.927 261.453 838.207 260.707 837.3 260.2C836.393 259.667 835.42 259.4 834.38 259.4C833.34 259.4 832.38 259.653 831.5 260.16C830.62 260.667 829.9 261.413 829.34 262.4C828.807 263.36 828.54 264.507 828.54 265.84C828.54 267.173 828.807 268.347 829.34 269.36C829.9 270.347 830.62 271.107 831.5 271.64C832.407 272.173 833.367 272.44 834.38 272.44C835.42 272.44 836.393 272.187 837.3 271.68C838.207 271.147 838.927 270.4 839.46 269.44C839.993 268.453 840.26 267.28 840.26 265.92ZM872.289 254.84V277H866.649V274.2C865.929 275.16 864.983 275.92 863.809 276.48C862.663 277.013 861.409 277.28 860.049 277.28C858.316 277.28 856.783 276.92 855.449 276.2C854.116 275.453 853.063 274.373 852.289 272.96C851.543 271.52 851.169 269.813 851.169 267.84V254.84H856.769V267.04C856.769 268.8 857.209 270.16 858.089 271.12C858.969 272.053 860.169 272.52 861.689 272.52C863.236 272.52 864.449 272.053 865.329 271.12C866.209 270.16 866.649 268.8 866.649 267.04V254.84H872.289ZM876.375 265.84C876.375 263.6 876.815 261.613 877.695 259.88C878.601 258.147 879.815 256.813 881.335 255.88C882.881 254.947 884.601 254.48 886.495 254.48C888.148 254.48 889.588 254.813 890.815 255.48C892.068 256.147 893.068 256.987 893.815 258V254.84H899.455V277H893.815V273.76C893.095 274.8 892.095 275.667 890.815 276.36C889.561 277.027 888.108 277.36 886.455 277.36C884.588 277.36 882.881 276.88 881.335 275.92C879.815 274.96 878.601 273.613 877.695 271.88C876.815 270.12 876.375 268.107 876.375 265.84ZM893.815 265.92C893.815 264.56 893.548 263.4 893.015 262.44C892.481 261.453 891.761 260.707 890.855 260.2C889.948 259.667 888.975 259.4 887.935 259.4C886.895 259.4 885.935 259.653 885.055 260.16C884.175 260.667 883.455 261.413 882.895 262.4C882.361 263.36 882.095 264.507 882.095 265.84C882.095 267.173 882.361 268.347 882.895 269.36C883.455 270.347 884.175 271.107 885.055 271.64C885.961 272.173 886.921 272.44 887.935 272.44C888.975 272.44 889.948 272.187 890.855 271.68C891.761 271.147 892.481 270.4 893.015 269.44C893.548 268.453 893.815 267.28 893.815 265.92ZM910.524 258.28C911.244 257.107 912.177 256.187 913.324 255.52C914.497 254.853 915.831 254.52 917.324 254.52V260.4H915.844C914.084 260.4 912.751 260.813 911.844 261.64C910.964 262.467 910.524 263.907 910.524 265.96V277H904.924V254.84H910.524V258.28ZM919.656 265.84C919.656 263.6 920.096 261.613 920.976 259.88C921.883 258.147 923.096 256.813 924.616 255.88C926.163 254.947 927.883 254.48 929.776 254.48C931.429 254.48 932.869 254.813 934.096 255.48C935.349 256.147 936.349 256.987 937.096 258V254.84H942.736V277H937.096V273.76C936.376 274.8 935.376 275.667 934.096 276.36C932.843 277.027 931.389 277.36 929.736 277.36C927.869 277.36 926.163 276.88 924.616 275.92C923.096 274.96 921.883 273.613 920.976 271.88C920.096 270.12 919.656 268.107 919.656 265.84ZM937.096 265.92C937.096 264.56 936.829 263.4 936.296 262.44C935.763 261.453 935.043 260.707 934.136 260.2C933.229 259.667 932.256 259.4 931.216 259.4C930.176 259.4 929.216 259.653 928.336 260.16C927.456 260.667 926.736 261.413 926.176 262.4C925.643 263.36 925.376 264.507 925.376 265.84C925.376 267.173 925.643 268.347 926.176 269.36C926.736 270.347 927.456 271.107 928.336 271.64C929.243 272.173 930.203 272.44 931.216 272.44C932.256 272.44 933.229 272.187 934.136 271.68C935.043 271.147 935.763 270.4 936.296 269.44C936.829 268.453 937.096 267.28 937.096 265.92ZM960.485 254.52C963.125 254.52 965.259 255.36 966.885 257.04C968.512 258.693 969.325 261.013 969.325 264V277H963.725V264.76C963.725 263 963.285 261.653 962.405 260.72C961.525 259.76 960.325 259.28 958.805 259.28C957.259 259.28 956.032 259.76 955.125 260.72C954.245 261.653 953.805 263 953.805 264.76V277H948.205V254.84H953.805V257.6C954.552 256.64 955.499 255.893 956.645 255.36C957.819 254.8 959.099 254.52 960.485 254.52ZM981.171 259.44V270.16C981.171 270.907 981.344 271.453 981.691 271.8C982.064 272.12 982.677 272.28 983.531 272.28H986.131V277H982.611C977.891 277 975.531 274.707 975.531 270.12V259.44H972.891V254.84H975.531V249.36H981.171V254.84H986.131V259.44H981.171ZM1010.76 265.44C1010.76 266.24 1010.71 266.96 1010.6 267.6H994.398C994.532 269.2 995.092 270.453 996.078 271.36C997.065 272.267 998.278 272.72 999.718 272.72C1001.8 272.72 1003.28 271.827 1004.16 270.04H1010.2C1009.56 272.173 1008.33 273.933 1006.52 275.32C1004.71 276.68 1002.48 277.36 999.838 277.36C997.705 277.36 995.785 276.893 994.078 275.96C992.398 275 991.078 273.653 990.118 271.92C989.185 270.187 988.718 268.187 988.718 265.92C988.718 263.627 989.185 261.613 990.118 259.88C991.052 258.147 992.358 256.813 994.038 255.88C995.718 254.947 997.652 254.48 999.838 254.48C1001.95 254.48 1003.83 254.933 1005.48 255.84C1007.16 256.747 1008.45 258.04 1009.36 259.72C1010.29 261.373 1010.76 263.28 1010.76 265.44ZM1004.96 263.84C1004.93 262.4 1004.41 261.253 1003.4 260.4C1002.39 259.52 1001.15 259.08 999.678 259.08C998.292 259.08 997.118 259.507 996.158 260.36C995.225 261.187 994.652 262.347 994.438 263.84H1004.96ZM1035.45 265.44C1035.45 266.24 1035.39 266.96 1035.29 267.6H1019.09C1019.22 269.2 1019.78 270.453 1020.77 271.36C1021.75 272.267 1022.97 272.72 1024.41 272.72C1026.49 272.72 1027.97 271.827 1028.85 270.04H1034.89C1034.25 272.173 1033.02 273.933 1031.21 275.32C1029.39 276.68 1027.17 277.36 1024.53 277.36C1022.39 277.36 1020.47 276.893 1018.77 275.96C1017.09 275 1015.77 273.653 1014.81 271.92C1013.87 270.187 1013.41 268.187 1013.41 265.92C1013.41 263.627 1013.87 261.613 1014.81 259.88C1015.74 258.147 1017.05 256.813 1018.73 255.88C1020.41 254.947 1022.34 254.48 1024.53 254.48C1026.63 254.48 1028.51 254.933 1030.17 255.84C1031.85 256.747 1033.14 258.04 1034.05 259.72C1034.98 261.373 1035.45 263.28 1035.45 265.44ZM1029.65 263.84C1029.62 262.4 1029.1 261.253 1028.09 260.4C1027.07 259.52 1025.83 259.08 1024.37 259.08C1022.98 259.08 1021.81 259.507 1020.85 260.36C1019.91 261.187 1019.34 262.347 1019.13 263.84H1029.65ZM1038.09 265.84C1038.09 263.6 1038.53 261.613 1039.41 259.88C1040.32 258.147 1041.55 256.813 1043.09 255.88C1044.64 254.947 1046.36 254.48 1048.25 254.48C1049.69 254.48 1051.07 254.8 1052.37 255.44C1053.68 256.053 1054.72 256.88 1055.49 257.92V247.4H1061.17V277H1055.49V273.72C1054.8 274.813 1053.83 275.693 1052.57 276.36C1051.32 277.027 1049.87 277.36 1048.21 277.36C1046.35 277.36 1044.64 276.88 1043.09 275.92C1041.55 274.96 1040.32 273.613 1039.41 271.88C1038.53 270.12 1038.09 268.107 1038.09 265.84ZM1055.53 265.92C1055.53 264.56 1055.27 263.4 1054.73 262.44C1054.2 261.453 1053.48 260.707 1052.57 260.2C1051.67 259.667 1050.69 259.4 1049.65 259.4C1048.61 259.4 1047.65 259.653 1046.77 260.16C1045.89 260.667 1045.17 261.413 1044.61 262.4C1044.08 263.36 1043.81 264.507 1043.81 265.84C1043.81 267.173 1044.08 268.347 1044.61 269.36C1045.17 270.347 1045.89 271.107 1046.77 271.64C1047.68 272.173 1048.64 272.44 1049.65 272.44C1050.69 272.44 1051.67 272.187 1052.57 271.68C1053.48 271.147 1054.2 270.4 1054.73 269.44C1055.27 268.453 1055.53 267.28 1055.53 265.92ZM517.36 318.08C518.08 317.013 519.067 316.147 520.32 315.48C521.6 314.813 523.053 314.48 524.68 314.48C526.573 314.48 528.28 314.947 529.8 315.88C531.347 316.813 532.56 318.147 533.44 319.88C534.347 321.587 534.8 323.573 534.8 325.84C534.8 328.107 534.347 330.12 533.44 331.88C532.56 333.613 531.347 334.96 529.8 335.92C528.28 336.88 526.573 337.36 524.68 337.36C523.027 337.36 521.573 337.04 520.32 336.4C519.093 335.733 518.107 334.88 517.36 333.84V337H511.76V307.4H517.36V318.08ZM529.08 325.84C529.08 324.507 528.8 323.36 528.24 322.4C527.707 321.413 526.987 320.667 526.08 320.16C525.2 319.653 524.24 319.4 523.2 319.4C522.187 319.4 521.227 319.667 520.32 320.2C519.44 320.707 518.72 321.453 518.16 322.44C517.627 323.427 517.36 324.587 517.36 325.92C517.36 327.253 517.627 328.413 518.16 329.4C518.72 330.387 519.44 331.147 520.32 331.68C521.227 332.187 522.187 332.44 523.2 332.44C524.24 332.44 525.2 332.173 526.08 331.64C526.987 331.107 527.707 330.347 528.24 329.36C528.8 328.373 529.08 327.2 529.08 325.84ZM560.069 314.84L546.349 347.48H540.389L545.189 336.44L536.309 314.84H542.589L548.309 330.32L554.109 314.84H560.069Z" fill="white"/>
<path d="M579.139 319.44V330.16C579.139 330.907 579.313 331.453 579.659 331.8C580.033 332.12 580.646 332.28 581.499 332.28H584.099V337H580.579C575.859 337 573.499 334.707 573.499 330.12V319.44H570.859V314.84H573.499V309.36H579.139V314.84H584.099V319.44H579.139ZM593.727 318.28C594.447 317.107 595.381 316.187 596.527 315.52C597.701 314.853 599.034 314.52 600.527 314.52V320.4H599.047C597.287 320.4 595.954 320.813 595.047 321.64C594.167 322.467 593.727 323.907 593.727 325.96V337H588.127V314.84H593.727V318.28ZM625.219 314.84V337H619.579V334.2C618.859 335.16 617.912 335.92 616.739 336.48C615.592 337.013 614.339 337.28 612.979 337.28C611.246 337.28 609.712 336.92 608.379 336.2C607.046 335.453 605.992 334.373 605.219 332.96C604.472 331.52 604.099 329.813 604.099 327.84V314.84H609.699V327.04C609.699 328.8 610.139 330.16 611.019 331.12C611.899 332.053 613.099 332.52 614.619 332.52C616.166 332.52 617.379 332.053 618.259 331.12C619.139 330.16 619.579 328.8 619.579 327.04V314.84H625.219ZM639.224 337.36C637.411 337.36 635.784 337.04 634.344 336.4C632.904 335.733 631.758 334.84 630.904 333.72C630.078 332.6 629.624 331.36 629.544 330H635.184C635.291 330.853 635.704 331.56 636.424 332.12C637.171 332.68 638.091 332.96 639.184 332.96C640.251 332.96 641.078 332.747 641.664 332.32C642.278 331.893 642.584 331.347 642.584 330.68C642.584 329.96 642.211 329.427 641.464 329.08C640.744 328.707 639.584 328.307 637.984 327.88C636.331 327.48 634.971 327.067 633.904 326.64C632.864 326.213 631.958 325.56 631.184 324.68C630.438 323.8 630.064 322.613 630.064 321.12C630.064 319.893 630.411 318.773 631.104 317.76C631.824 316.747 632.838 315.947 634.144 315.36C635.478 314.773 637.038 314.48 638.824 314.48C641.464 314.48 643.571 315.147 645.144 316.48C646.718 317.787 647.584 319.56 647.744 321.8H642.384C642.304 320.92 641.931 320.227 641.264 319.72C640.624 319.187 639.758 318.92 638.664 318.92C637.651 318.92 636.864 319.107 636.304 319.48C635.771 319.853 635.504 320.373 635.504 321.04C635.504 321.787 635.878 322.36 636.624 322.76C637.371 323.133 638.531 323.52 640.104 323.92C641.704 324.32 643.024 324.733 644.064 325.16C645.104 325.587 645.998 326.253 646.744 327.16C647.518 328.04 647.918 329.213 647.944 330.68C647.944 331.96 647.584 333.107 646.864 334.12C646.171 335.133 645.158 335.933 643.824 336.52C642.518 337.08 640.984 337.36 639.224 337.36ZM659.061 319.44V330.16C659.061 330.907 659.235 331.453 659.581 331.8C659.955 332.12 660.568 332.28 661.421 332.28H664.021V337H660.501C655.781 337 653.421 334.707 653.421 330.12V319.44H650.781V314.84H653.421V309.36H659.061V314.84H664.021V319.44H659.061ZM688.649 325.44C688.649 326.24 688.596 326.96 688.489 327.6H672.289C672.422 329.2 672.982 330.453 673.969 331.36C674.956 332.267 676.169 332.72 677.609 332.72C679.689 332.72 681.169 331.827 682.049 330.04H688.089C687.449 332.173 686.222 333.933 684.409 335.32C682.596 336.68 680.369 337.36 677.729 337.36C675.596 337.36 673.676 336.893 671.969 335.96C670.289 335 668.969 333.653 668.009 331.92C667.076 330.187 666.609 328.187 666.609 325.92C666.609 323.627 667.076 321.613 668.009 319.88C668.942 318.147 670.249 316.813 671.929 315.88C673.609 314.947 675.542 314.48 677.729 314.48C679.836 314.48 681.716 314.933 683.369 315.84C685.049 316.747 686.342 318.04 687.249 319.72C688.182 321.373 688.649 323.28 688.649 325.44ZM682.849 323.84C682.822 322.4 682.302 321.253 681.289 320.4C680.276 319.52 679.036 319.08 677.569 319.08C676.182 319.08 675.009 319.507 674.049 320.36C673.116 321.187 672.542 322.347 672.329 323.84H682.849ZM691.297 325.84C691.297 323.6 691.737 321.613 692.617 319.88C693.523 318.147 694.75 316.813 696.297 315.88C697.843 314.947 699.563 314.48 701.457 314.48C702.897 314.48 704.27 314.8 705.577 315.44C706.883 316.053 707.923 316.88 708.697 317.92V307.4H714.377V337H708.697V333.72C708.003 334.813 707.03 335.693 705.777 336.36C704.523 337.027 703.07 337.36 701.417 337.36C699.55 337.36 697.843 336.88 696.297 335.92C694.75 334.96 693.523 333.613 692.617 331.88C691.737 330.12 691.297 328.107 691.297 325.84ZM708.737 325.92C708.737 324.56 708.47 323.4 707.937 322.44C707.403 321.453 706.683 320.707 705.777 320.2C704.87 319.667 703.897 319.4 702.857 319.4C701.817 319.4 700.857 319.653 699.977 320.16C699.097 320.667 698.377 321.413 697.817 322.4C697.283 323.36 697.017 324.507 697.017 325.84C697.017 327.173 697.283 328.347 697.817 329.36C698.377 330.347 699.097 331.107 699.977 331.64C700.883 332.173 701.843 332.44 702.857 332.44C703.897 332.44 704.87 332.187 705.777 331.68C706.683 331.147 707.403 330.4 707.937 329.44C708.47 328.453 708.737 327.28 708.737 325.92ZM734.977 318.08C735.697 317.013 736.684 316.147 737.937 315.48C739.217 314.813 740.671 314.48 742.297 314.48C744.191 314.48 745.897 314.947 747.417 315.88C748.964 316.813 750.177 318.147 751.057 319.88C751.964 321.587 752.417 323.573 752.417 325.84C752.417 328.107 751.964 330.12 751.057 331.88C750.177 333.613 748.964 334.96 747.417 335.92C745.897 336.88 744.191 337.36 742.297 337.36C740.644 337.36 739.191 337.04 737.937 336.4C736.711 335.733 735.724 334.88 734.977 333.84V337H729.377V307.4H734.977V318.08ZM746.697 325.84C746.697 324.507 746.417 323.36 745.857 322.4C745.324 321.413 744.604 320.667 743.697 320.16C742.817 319.653 741.857 319.4 740.817 319.4C739.804 319.4 738.844 319.667 737.937 320.2C737.057 320.707 736.337 321.453 735.777 322.44C735.244 323.427 734.977 324.587 734.977 325.92C734.977 327.253 735.244 328.413 735.777 329.4C736.337 330.387 737.057 331.147 737.937 331.68C738.844 332.187 739.804 332.44 740.817 332.44C741.857 332.44 742.817 332.173 743.697 331.64C744.604 331.107 745.324 330.347 745.857 329.36C746.417 328.373 746.697 327.2 746.697 325.84ZM755.047 325.84C755.047 323.6 755.487 321.613 756.367 319.88C757.273 318.147 758.487 316.813 760.007 315.88C761.553 314.947 763.273 314.48 765.167 314.48C766.82 314.48 768.26 314.813 769.487 315.48C770.74 316.147 771.74 316.987 772.487 318V314.84H778.127V337H772.487V333.76C771.767 334.8 770.767 335.667 769.487 336.36C768.233 337.027 766.78 337.36 765.127 337.36C763.26 337.36 761.553 336.88 760.007 335.92C758.487 334.96 757.273 333.613 756.367 331.88C755.487 330.12 755.047 328.107 755.047 325.84ZM772.487 325.92C772.487 324.56 772.22 323.4 771.687 322.44C771.153 321.453 770.433 320.707 769.527 320.2C768.62 319.667 767.647 319.4 766.607 319.4C765.567 319.4 764.607 319.653 763.727 320.16C762.847 320.667 762.127 321.413 761.567 322.4C761.033 323.36 760.767 324.507 760.767 325.84C760.767 327.173 761.033 328.347 761.567 329.36C762.127 330.347 762.847 331.107 763.727 331.64C764.633 332.173 765.593 332.44 766.607 332.44C767.647 332.44 768.62 332.187 769.527 331.68C770.433 331.147 771.153 330.4 771.687 329.44C772.22 328.453 772.487 327.28 772.487 325.92ZM795.876 314.52C798.516 314.52 800.649 315.36 802.276 317.04C803.903 318.693 804.716 321.013 804.716 324V337H799.116V324.76C799.116 323 798.676 321.653 797.796 320.72C796.916 319.76 795.716 319.28 794.196 319.28C792.649 319.28 791.423 319.76 790.516 320.72C789.636 321.653 789.196 323 789.196 324.76V337H783.596V314.84H789.196V317.6C789.943 316.64 790.889 315.893 792.036 315.36C793.209 314.8 794.489 314.52 795.876 314.52ZM823.161 337L815.641 327.56V337H810.041V307.4H815.641V324.24L823.081 314.84H830.361L820.601 325.96L830.441 337H823.161ZM841.881 337.36C840.067 337.36 838.441 337.04 837.001 336.4C835.561 335.733 834.414 334.84 833.561 333.72C832.734 332.6 832.281 331.36 832.201 330H837.841C837.947 330.853 838.361 331.56 839.081 332.12C839.827 332.68 840.747 332.96 841.841 332.96C842.907 332.96 843.734 332.747 844.321 332.32C844.934 331.893 845.241 331.347 845.241 330.68C845.241 329.96 844.867 329.427 844.121 329.08C843.401 328.707 842.241 328.307 840.641 327.88C838.987 327.48 837.627 327.067 836.561 326.64C835.521 326.213 834.614 325.56 833.841 324.68C833.094 323.8 832.721 322.613 832.721 321.12C832.721 319.893 833.067 318.773 833.761 317.76C834.481 316.747 835.494 315.947 836.801 315.36C838.134 314.773 839.694 314.48 841.481 314.48C844.121 314.48 846.227 315.147 847.801 316.48C849.374 317.787 850.241 319.56 850.401 321.8H845.041C844.961 320.92 844.587 320.227 843.921 319.72C843.281 319.187 842.414 318.92 841.321 318.92C840.307 318.92 839.521 319.107 838.961 319.48C838.427 319.853 838.161 320.373 838.161 321.04C838.161 321.787 838.534 322.36 839.281 322.76C840.027 323.133 841.187 323.52 842.761 323.92C844.361 324.32 845.681 324.733 846.721 325.16C847.761 325.587 848.654 326.253 849.401 327.16C850.174 328.04 850.574 329.213 850.601 330.68C850.601 331.96 850.241 333.107 849.521 334.12C848.827 335.133 847.814 335.933 846.481 336.52C845.174 337.08 843.641 337.36 841.881 337.36Z" fill="#00CA00"/>
</svg>
