<svg width="1238" height="397" viewBox="0 0 1238 397" fill="none" xmlns="http://www.w3.org/2000/svg">
<g filter="url(#filter0_d_288_139)">
<rect x="4" width="1230" height="389" rx="20" fill="white"/>
</g>
<g filter="url(#filter1_d_288_139)">
<rect x="84" y="150" width="248" height="166" rx="20" fill="white"/>
</g>
<g filter="url(#filter2_d_288_139)">
<rect x="361" y="150" width="248" height="166" rx="20" fill="white"/>
</g>
<g filter="url(#filter3_d_288_139)">
<rect x="639" y="150" width="248" height="166" rx="20" fill="white"/>
</g>
<g filter="url(#filter4_d_288_139)">
<rect x="916" y="150" width="248" height="166" rx="20" fill="white"/>
</g>
<path d="M375.28 46.08V63.36C375.28 65.2533 375.773 66.7067 376.76 67.72C377.747 68.7067 379.133 69.2 380.92 69.2C382.733 69.2 384.133 68.7067 385.12 67.72C386.107 66.7067 386.6 65.2533 386.6 63.36V46.08H392.24V63.32C392.24 65.6933 391.72 67.7067 390.68 69.36C389.667 70.9867 388.293 72.2133 386.56 73.04C384.853 73.8667 382.947 74.28 380.84 74.28C378.76 74.28 376.867 73.8667 375.16 73.04C373.48 72.2133 372.147 70.9867 371.16 69.36C370.173 67.7067 369.68 65.6933 369.68 63.32V46.08H375.28ZM409.931 51.52C412.571 51.52 414.704 52.36 416.331 54.04C417.957 55.6933 418.771 58.0133 418.771 61V74H413.171V61.76C413.171 60 412.731 58.6533 411.851 57.72C410.971 56.76 409.771 56.28 408.251 56.28C406.704 56.28 405.477 56.76 404.571 57.72C403.691 58.6533 403.251 60 403.251 61.76V74H397.651V51.84H403.251V54.6C403.997 53.64 404.944 52.8933 406.091 52.36C407.264 51.8 408.544 51.52 409.931 51.52ZM422.656 62.84C422.656 60.6 423.096 58.6133 423.976 56.88C424.883 55.1467 426.109 53.8133 427.656 52.88C429.203 51.9467 430.923 51.48 432.816 51.48C434.256 51.48 435.629 51.8 436.936 52.44C438.243 53.0533 439.283 53.88 440.056 54.92V44.4H445.736V74H440.056V70.72C439.363 71.8133 438.389 72.6933 437.136 73.36C435.883 74.0267 434.429 74.36 432.776 74.36C430.909 74.36 429.203 73.88 427.656 72.92C426.109 71.96 424.883 70.6133 423.976 68.88C423.096 67.12 422.656 65.1067 422.656 62.84ZM440.096 62.92C440.096 61.56 439.829 60.4 439.296 59.44C438.763 58.4533 438.043 57.7067 437.136 57.2C436.229 56.6667 435.256 56.4 434.216 56.4C433.176 56.4 432.216 56.6533 431.336 57.16C430.456 57.6667 429.736 58.4133 429.176 59.4C428.643 60.36 428.376 61.5067 428.376 62.84C428.376 64.1733 428.643 65.3467 429.176 66.36C429.736 67.3467 430.456 68.1067 431.336 68.64C432.243 69.1733 433.203 69.44 434.216 69.44C435.256 69.44 436.229 69.1867 437.136 68.68C438.043 68.1467 438.763 67.4 439.296 66.44C439.829 65.4533 440.096 64.28 440.096 62.92ZM471.805 62.44C471.805 63.24 471.752 63.96 471.645 64.6H455.445C455.579 66.2 456.139 67.4533 457.125 68.36C458.112 69.2667 459.325 69.72 460.765 69.72C462.845 69.72 464.325 68.8267 465.205 67.04H471.245C470.605 69.1733 469.379 70.9333 467.565 72.32C465.752 73.68 463.525 74.36 460.885 74.36C458.752 74.36 456.832 73.8933 455.125 72.96C453.445 72 452.125 70.6533 451.165 68.92C450.232 67.1867 449.765 65.1867 449.765 62.92C449.765 60.6267 450.232 58.6133 451.165 56.88C452.099 55.1467 453.405 53.8133 455.085 52.88C456.765 51.9467 458.699 51.48 460.885 51.48C462.992 51.48 464.872 51.9333 466.525 52.84C468.205 53.7467 469.499 55.04 470.405 56.72C471.339 58.3733 471.805 60.28 471.805 62.44ZM466.005 60.84C465.979 59.4 465.459 58.2533 464.445 57.4C463.432 56.52 462.192 56.08 460.725 56.08C459.339 56.08 458.165 56.5067 457.205 57.36C456.272 58.1867 455.699 59.3467 455.485 60.84H466.005ZM481.493 55.28C482.213 54.1067 483.146 53.1867 484.293 52.52C485.466 51.8533 486.799 51.52 488.293 51.52V57.4H486.813C485.053 57.4 483.719 57.8133 482.813 58.64C481.933 59.4667 481.493 60.9067 481.493 62.96V74H475.893V51.84H481.493V55.28ZM500.545 74.36C498.731 74.36 497.105 74.04 495.665 73.4C494.225 72.7333 493.078 71.84 492.225 70.72C491.398 69.6 490.945 68.36 490.865 67H496.505C496.611 67.8533 497.025 68.56 497.745 69.12C498.491 69.68 499.411 69.96 500.505 69.96C501.571 69.96 502.398 69.7467 502.985 69.32C503.598 68.8933 503.905 68.3467 503.905 67.68C503.905 66.96 503.531 66.4267 502.785 66.08C502.065 65.7067 500.905 65.3067 499.305 64.88C497.651 64.48 496.291 64.0667 495.225 63.64C494.185 63.2133 493.278 62.56 492.505 61.68C491.758 60.8 491.385 59.6133 491.385 58.12C491.385 56.8933 491.731 55.7733 492.425 54.76C493.145 53.7467 494.158 52.9467 495.465 52.36C496.798 51.7733 498.358 51.48 500.145 51.48C502.785 51.48 504.891 52.1467 506.465 53.48C508.038 54.7867 508.905 56.56 509.065 58.8H503.705C503.625 57.92 503.251 57.2267 502.585 56.72C501.945 56.1867 501.078 55.92 499.985 55.92C498.971 55.92 498.185 56.1067 497.625 56.48C497.091 56.8533 496.825 57.3733 496.825 58.04C496.825 58.7867 497.198 59.36 497.945 59.76C498.691 60.1333 499.851 60.52 501.425 60.92C503.025 61.32 504.345 61.7333 505.385 62.16C506.425 62.5867 507.318 63.2533 508.065 64.16C508.838 65.04 509.238 66.2133 509.265 67.68C509.265 68.96 508.905 70.1067 508.185 71.12C507.491 72.1333 506.478 72.9333 505.145 73.52C503.838 74.08 502.305 74.36 500.545 74.36ZM520.382 56.44V67.16C520.382 67.9067 520.555 68.4533 520.902 68.8C521.275 69.12 521.888 69.28 522.742 69.28H525.342V74H521.822C517.102 74 514.742 71.7067 514.742 67.12V56.44H512.102V51.84H514.742V46.36H520.382V51.84H525.342V56.44H520.382ZM527.929 62.84C527.929 60.6 528.369 58.6133 529.249 56.88C530.156 55.1467 531.369 53.8133 532.889 52.88C534.436 51.9467 536.156 51.48 538.049 51.48C539.703 51.48 541.143 51.8133 542.369 52.48C543.623 53.1467 544.623 53.9867 545.369 55V51.84H551.009V74H545.369V70.76C544.649 71.8 543.649 72.6667 542.369 73.36C541.116 74.0267 539.663 74.36 538.009 74.36C536.143 74.36 534.436 73.88 532.889 72.92C531.369 71.96 530.156 70.6133 529.249 68.88C528.369 67.12 527.929 65.1067 527.929 62.84ZM545.369 62.92C545.369 61.56 545.103 60.4 544.569 59.44C544.036 58.4533 543.316 57.7067 542.409 57.2C541.503 56.6667 540.529 56.4 539.489 56.4C538.449 56.4 537.489 56.6533 536.609 57.16C535.729 57.6667 535.009 58.4133 534.449 59.4C533.916 60.36 533.649 61.5067 533.649 62.84C533.649 64.1733 533.916 65.3467 534.449 66.36C535.009 67.3467 535.729 68.1067 536.609 68.64C537.516 69.1733 538.476 69.44 539.489 69.44C540.529 69.44 541.503 69.1867 542.409 68.68C543.316 68.1467 544.036 67.4 544.569 66.44C545.103 65.4533 545.369 64.28 545.369 62.92ZM568.759 51.52C571.399 51.52 573.532 52.36 575.159 54.04C576.785 55.6933 577.599 58.0133 577.599 61V74H571.999V61.76C571.999 60 571.559 58.6533 570.679 57.72C569.799 56.76 568.599 56.28 567.079 56.28C565.532 56.28 564.305 56.76 563.399 57.72C562.519 58.6533 562.079 60 562.079 61.76V74H556.479V51.84H562.079V54.6C562.825 53.64 563.772 52.8933 564.919 52.36C566.092 51.8 567.372 51.52 568.759 51.52ZM581.484 62.84C581.484 60.6 581.924 58.6133 582.804 56.88C583.711 55.1467 584.937 53.8133 586.484 52.88C588.031 51.9467 589.751 51.48 591.644 51.48C593.084 51.48 594.457 51.8 595.764 52.44C597.071 53.0533 598.111 53.88 598.884 54.92V44.4H604.564V74H598.884V70.72C598.191 71.8133 597.217 72.6933 595.964 73.36C594.711 74.0267 593.257 74.36 591.604 74.36C589.737 74.36 588.031 73.88 586.484 72.92C584.937 71.96 583.711 70.6133 582.804 68.88C581.924 67.12 581.484 65.1067 581.484 62.84ZM598.924 62.92C598.924 61.56 598.657 60.4 598.124 59.44C597.591 58.4533 596.871 57.7067 595.964 57.2C595.057 56.6667 594.084 56.4 593.044 56.4C592.004 56.4 591.044 56.6533 590.164 57.16C589.284 57.6667 588.564 58.4133 588.004 59.4C587.471 60.36 587.204 61.5067 587.204 62.84C587.204 64.1733 587.471 65.3467 588.004 66.36C588.564 67.3467 589.284 68.1067 590.164 68.64C591.071 69.1733 592.031 69.44 593.044 69.44C594.084 69.44 595.057 69.1867 595.964 68.68C596.871 68.1467 597.591 67.4 598.124 66.44C598.657 65.4533 598.924 64.28 598.924 62.92ZM632.525 74.28C629.911 74.28 627.511 73.6667 625.325 72.44C623.138 71.2133 621.405 69.52 620.125 67.36C618.845 65.1733 618.205 62.7067 618.205 59.96C618.205 57.24 618.845 54.8 620.125 52.64C621.405 50.4533 623.138 48.7467 625.325 47.52C627.511 46.2933 629.911 45.68 632.525 45.68C635.165 45.68 637.565 46.2933 639.725 47.52C641.911 48.7467 643.631 50.4533 644.885 52.64C646.165 54.8 646.805 57.24 646.805 59.96C646.805 62.7067 646.165 65.1733 644.885 67.36C643.631 69.52 641.911 71.2133 639.725 72.44C637.538 73.6667 635.138 74.28 632.525 74.28ZM632.525 69.28C634.205 69.28 635.685 68.9067 636.965 68.16C638.245 67.3867 639.245 66.2933 639.965 64.88C640.685 63.4667 641.045 61.8267 641.045 59.96C641.045 58.0933 640.685 56.4667 639.965 55.08C639.245 53.6667 638.245 52.5867 636.965 51.84C635.685 51.0933 634.205 50.72 632.525 50.72C630.845 50.72 629.351 51.0933 628.045 51.84C626.765 52.5867 625.765 53.6667 625.045 55.08C624.325 56.4667 623.965 58.0933 623.965 59.96C623.965 61.8267 624.325 63.4667 625.045 64.88C625.765 66.2933 626.765 67.3867 628.045 68.16C629.351 68.9067 630.845 69.28 632.525 69.28ZM671.891 51.84V74H666.251V71.2C665.531 72.16 664.584 72.92 663.411 73.48C662.264 74.0133 661.011 74.28 659.651 74.28C657.918 74.28 656.384 73.92 655.051 73.2C653.718 72.4533 652.664 71.3733 651.891 69.96C651.144 68.52 650.771 66.8133 650.771 64.84V51.84H656.371V64.04C656.371 65.8 656.811 67.16 657.691 68.12C658.571 69.0533 659.771 69.52 661.291 69.52C662.838 69.52 664.051 69.0533 664.931 68.12C665.811 67.16 666.251 65.8 666.251 64.04V51.84H671.891ZM683.016 55.28C683.736 54.1067 684.67 53.1867 685.816 52.52C686.99 51.8533 688.323 51.52 689.816 51.52V57.4H688.336C686.576 57.4 685.243 57.8133 684.336 58.64C683.456 59.4667 683.016 60.9067 683.016 62.96V74H677.416V51.84H683.016V55.28ZM723.479 54.72C723.479 56.2133 723.119 57.6133 722.399 58.92C721.706 60.2267 720.599 61.28 719.079 62.08C717.586 62.88 715.693 63.28 713.399 63.28H708.719V74H703.119V46.08H713.399C715.559 46.08 717.399 46.4533 718.919 47.2C720.439 47.9467 721.573 48.9733 722.319 50.28C723.093 51.5867 723.479 53.0667 723.479 54.72ZM713.159 58.76C714.706 58.76 715.853 58.4133 716.599 57.72C717.346 57 717.719 56 717.719 54.72C717.719 52 716.199 50.64 713.159 50.64H708.719V58.76H713.159ZM733.055 55.28C733.775 54.1067 734.709 53.1867 735.855 52.52C737.029 51.8533 738.362 51.52 739.855 51.52V57.4H738.375C736.615 57.4 735.282 57.8133 734.375 58.64C733.495 59.4667 733.055 60.9067 733.055 62.96V74H727.455V51.84H733.055V55.28ZM753.467 74.36C751.334 74.36 749.414 73.8933 747.707 72.96C746.001 72 744.654 70.6533 743.667 68.92C742.707 67.1867 742.227 65.1867 742.227 62.92C742.227 60.6533 742.721 58.6533 743.707 56.92C744.721 55.1867 746.094 53.8533 747.827 52.92C749.561 51.96 751.494 51.48 753.627 51.48C755.761 51.48 757.694 51.96 759.427 52.92C761.161 53.8533 762.521 55.1867 763.507 56.92C764.521 58.6533 765.027 60.6533 765.027 62.92C765.027 65.1867 764.507 67.1867 763.467 68.92C762.454 70.6533 761.067 72 759.307 72.96C757.574 73.8933 755.627 74.36 753.467 74.36ZM753.467 69.48C754.481 69.48 755.427 69.24 756.307 68.76C757.214 68.2533 757.934 67.5067 758.467 66.52C759.001 65.5333 759.267 64.3333 759.267 62.92C759.267 60.8133 758.707 59.2 757.587 58.08C756.494 56.9333 755.147 56.36 753.547 56.36C751.947 56.36 750.601 56.9333 749.507 58.08C748.441 59.2 747.907 60.8133 747.907 62.92C747.907 65.0267 748.427 66.6533 749.467 67.8C750.534 68.92 751.867 69.48 753.467 69.48ZM767.695 62.84C767.695 60.6 768.135 58.6133 769.015 56.88C769.922 55.1467 771.148 53.8133 772.695 52.88C774.242 51.9467 775.962 51.48 777.855 51.48C779.295 51.48 780.668 51.8 781.975 52.44C783.282 53.0533 784.322 53.88 785.095 54.92V44.4H790.775V74H785.095V70.72C784.402 71.8133 783.428 72.6933 782.175 73.36C780.922 74.0267 779.468 74.36 777.815 74.36C775.948 74.36 774.242 73.88 772.695 72.92C771.148 71.96 769.922 70.6133 769.015 68.88C768.135 67.12 767.695 65.1067 767.695 62.84ZM785.135 62.92C785.135 61.56 784.868 60.4 784.335 59.44C783.802 58.4533 783.082 57.7067 782.175 57.2C781.268 56.6667 780.295 56.4 779.255 56.4C778.215 56.4 777.255 56.6533 776.375 57.16C775.495 57.6667 774.775 58.4133 774.215 59.4C773.682 60.36 773.415 61.5067 773.415 62.84C773.415 64.1733 773.682 65.3467 774.215 66.36C774.775 67.3467 775.495 68.1067 776.375 68.64C777.282 69.1733 778.242 69.44 779.255 69.44C780.295 69.44 781.268 69.1867 782.175 68.68C783.082 68.1467 783.802 67.4 784.335 66.44C784.868 65.4533 785.135 64.28 785.135 62.92ZM817.164 51.84V74H811.524V71.2C810.804 72.16 809.858 72.92 808.684 73.48C807.538 74.0133 806.284 74.28 804.924 74.28C803.191 74.28 801.658 73.92 800.324 73.2C798.991 72.4533 797.938 71.3733 797.164 69.96C796.418 68.52 796.044 66.8133 796.044 64.84V51.84H801.644V64.04C801.644 65.8 802.084 67.16 802.964 68.12C803.844 69.0533 805.044 69.52 806.564 69.52C808.111 69.52 809.324 69.0533 810.204 68.12C811.084 67.16 811.524 65.8 811.524 64.04V51.84H817.164ZM821.25 62.92C821.25 60.6267 821.716 58.6267 822.65 56.92C823.583 55.1867 824.876 53.8533 826.53 52.92C828.183 51.96 830.076 51.48 832.21 51.48C834.956 51.48 837.223 52.1733 839.01 53.56C840.823 54.92 842.036 56.84 842.65 59.32H836.61C836.29 58.36 835.743 57.6133 834.97 57.08C834.223 56.52 833.29 56.24 832.17 56.24C830.57 56.24 829.303 56.8267 828.37 58C827.436 59.1467 826.97 60.7867 826.97 62.92C826.97 65.0267 827.436 66.6667 828.37 67.84C829.303 68.9867 830.57 69.56 832.17 69.56C834.436 69.56 835.916 68.5467 836.61 66.52H842.65C842.036 68.92 840.823 70.8267 839.01 72.24C837.196 73.6533 834.93 74.36 832.21 74.36C830.076 74.36 828.183 73.8933 826.53 72.96C824.876 72 823.583 70.6667 822.65 68.96C821.716 67.2267 821.25 65.2133 821.25 62.92ZM853.272 56.44V67.16C853.272 67.9067 853.446 68.4533 853.792 68.8C854.166 69.12 854.779 69.28 855.632 69.28H858.232V74H854.712C849.992 74 847.632 71.7067 847.632 67.12V56.44H844.992V51.84H847.632V46.36H853.272V51.84H858.232V56.44H853.272ZM870.74 74.36C868.927 74.36 867.3 74.04 865.86 73.4C864.42 72.7333 863.273 71.84 862.42 70.72C861.593 69.6 861.14 68.36 861.06 67H866.7C866.807 67.8533 867.22 68.56 867.94 69.12C868.687 69.68 869.607 69.96 870.7 69.96C871.767 69.96 872.593 69.7467 873.18 69.32C873.793 68.8933 874.1 68.3467 874.1 67.68C874.1 66.96 873.727 66.4267 872.98 66.08C872.26 65.7067 871.1 65.3067 869.5 64.88C867.847 64.48 866.487 64.0667 865.42 63.64C864.38 63.2133 863.473 62.56 862.7 61.68C861.953 60.8 861.58 59.6133 861.58 58.12C861.58 56.8933 861.927 55.7733 862.62 54.76C863.34 53.7467 864.353 52.9467 865.66 52.36C866.993 51.7733 868.553 51.48 870.34 51.48C872.98 51.48 875.087 52.1467 876.66 53.48C878.233 54.7867 879.1 56.56 879.26 58.8H873.9C873.82 57.92 873.447 57.2267 872.78 56.72C872.14 56.1867 871.273 55.92 870.18 55.92C869.167 55.92 868.38 56.1067 867.82 56.48C867.287 56.8533 867.02 57.3733 867.02 58.04C867.02 58.7867 867.393 59.36 868.14 59.76C868.887 60.1333 870.047 60.52 871.62 60.92C873.22 61.32 874.54 61.7333 875.58 62.16C876.62 62.5867 877.513 63.2533 878.26 64.16C879.033 65.04 879.433 66.2133 879.46 67.68C879.46 68.96 879.1 70.1067 878.38 71.12C877.687 72.1333 876.673 72.9333 875.34 73.52C874.033 74.08 872.5 74.36 870.74 74.36Z" fill="#00CA00"/>
<defs>
<filter id="filter0_d_288_139" x="0" y="0" width="1238" height="397" filterUnits="userSpaceOnUse" color-interpolation-filters="sRGB">
<feFlood flood-opacity="0" result="BackgroundImageFix"/>
<feColorMatrix in="SourceAlpha" type="matrix" values="0 0 0 0 0 0 0 0 0 0 0 0 0 0 0 0 0 0 127 0" result="hardAlpha"/>
<feOffset dy="4"/>
<feGaussianBlur stdDeviation="2"/>
<feComposite in2="hardAlpha" operator="out"/>
<feColorMatrix type="matrix" values="0 0 0 0 0 0 0 0 0 0.341176 0 0 0 0 1 0 0 0 0.25 0"/>
<feBlend mode="normal" in2="BackgroundImageFix" result="effect1_dropShadow_288_139"/>
<feBlend mode="normal" in="SourceGraphic" in2="effect1_dropShadow_288_139" result="shape"/>
</filter>
<filter id="filter1_d_288_139" x="80" y="150" width="256" height="174" filterUnits="userSpaceOnUse" color-interpolation-filters="sRGB">
<feFlood flood-opacity="0" result="BackgroundImageFix"/>
<feColorMatrix in="SourceAlpha" type="matrix" values="0 0 0 0 0 0 0 0 0 0 0 0 0 0 0 0 0 0 127 0" result="hardAlpha"/>
<feOffset dy="4"/>
<feGaussianBlur stdDeviation="2"/>
<feComposite in2="hardAlpha" operator="out"/>
<feColorMatrix type="matrix" values="0 0 0 0 0 0 0 0 0 0.341176 0 0 0 0 1 0 0 0 0.25 0"/>
<feBlend mode="normal" in2="BackgroundImageFix" result="effect1_dropShadow_288_139"/>
<feBlend mode="normal" in="SourceGraphic" in2="effect1_dropShadow_288_139" result="shape"/>
</filter>
<filter id="filter2_d_288_139" x="357" y="150" width="256" height="174" filterUnits="userSpaceOnUse" color-interpolation-filters="sRGB">
<feFlood flood-opacity="0" result="BackgroundImageFix"/>
<feColorMatrix in="SourceAlpha" type="matrix" values="0 0 0 0 0 0 0 0 0 0 0 0 0 0 0 0 0 0 127 0" result="hardAlpha"/>
<feOffset dy="4"/>
<feGaussianBlur stdDeviation="2"/>
<feComposite in2="hardAlpha" operator="out"/>
<feColorMatrix type="matrix" values="0 0 0 0 0 0 0 0 0 0.341176 0 0 0 0 1 0 0 0 0.25 0"/>
<feBlend mode="normal" in2="BackgroundImageFix" result="effect1_dropShadow_288_139"/>
<feBlend mode="normal" in="SourceGraphic" in2="effect1_dropShadow_288_139" result="shape"/>
</filter>
<filter id="filter3_d_288_139" x="635" y="150" width="256" height="174" filterUnits="userSpaceOnUse" color-interpolation-filters="sRGB">
<feFlood flood-opacity="0" result="BackgroundImageFix"/>
<feColorMatrix in="SourceAlpha" type="matrix" values="0 0 0 0 0 0 0 0 0 0 0 0 0 0 0 0 0 0 127 0" result="hardAlpha"/>
<feOffset dy="4"/>
<feGaussianBlur stdDeviation="2"/>
<feComposite in2="hardAlpha" operator="out"/>
<feColorMatrix type="matrix" values="0 0 0 0 0 0 0 0 0 0.341176 0 0 0 0 1 0 0 0 0.25 0"/>
<feBlend mode="normal" in2="BackgroundImageFix" result="effect1_dropShadow_288_139"/>
<feBlend mode="normal" in="SourceGraphic" in2="effect1_dropShadow_288_139" result="shape"/>
</filter>
<filter id="filter4_d_288_139" x="912" y="150" width="256" height="174" filterUnits="userSpaceOnUse" color-interpolation-filters="sRGB">
<feFlood flood-opacity="0" result="BackgroundImageFix"/>
<feColorMatrix in="SourceAlpha" type="matrix" values="0 0 0 0 0 0 0 0 0 0 0 0 0 0 0 0 0 0 127 0" result="hardAlpha"/>
<feOffset dy="4"/>
<feGaussianBlur stdDeviation="2"/>
<feComposite in2="hardAlpha" operator="out"/>
<feColorMatrix type="matrix" values="0 0 0 0 0 0 0 0 0 0.341176 0 0 0 0 1 0 0 0 0.25 0"/>
<feBlend mode="normal" in2="BackgroundImageFix" result="effect1_dropShadow_288_139"/>
<feBlend mode="normal" in="SourceGraphic" in2="effect1_dropShadow_288_139" result="shape"/>
</filter>
</defs>
</svg>
