<svg width="58" height="58" viewBox="0 0 58 58" fill="none" xmlns="http://www.w3.org/2000/svg">
<g filter="url(#filter0_d_61_112)">
<circle cx="29" cy="25" r="25" fill="white"/>
</g>
<path d="M29 41.0298C36.9262 41.0298 43.5143 34.4557 43.5143 26.5154C43.5143 21.7342 41.0955 17.4368 37.438 14.7757C36.8127 14.2918 36.0295 14.4485 35.6737 15.0319C35.3179 15.6294 35.5031 16.2984 36.072 16.7398C39.1034 18.9025 41.0809 22.4743 41.0955 26.5154C41.1094 33.2329 35.7022 38.6109 29 38.6109C22.2831 38.6109 16.9184 33.2317 16.9184 26.5154C16.9184 20.7524 20.8746 15.9572 26.2538 14.7332V16.7823C26.2538 17.7926 26.9508 18.0634 27.7189 17.5079L32.2725 14.3204C32.913 13.8796 32.9276 13.1965 32.2725 12.7266L27.7335 9.53912C26.9502 8.97023 26.2538 9.2404 26.2538 10.2653V12.2713C19.5935 13.5663 14.4856 19.5145 14.4856 26.5154C14.4856 34.4557 21.0597 41.0298 29 41.0298ZM21.6572 21.2934C21.5861 21.9619 21.5297 22.617 21.5297 23.2569C21.5297 28.1092 24.7451 31.8662 28.9004 31.8662C30.7218 31.8662 32.4151 31.083 33.1552 29.7885C33.8097 30.6422 34.137 31.6664 34.6634 33.2602C34.7205 33.4029 34.8625 33.4599 34.9912 33.3883L35.4891 33.1467C35.8588 32.99 35.987 32.7909 35.987 32.4065C35.987 31.3392 34.6348 29.7594 33.9378 29.1195C31.0205 26.4019 26.524 27.9811 25.4136 24.9927C25.3856 24.9363 25.3711 24.9077 25.3711 24.8652C25.3711 24.7511 25.4706 24.6655 25.5562 24.6655C25.6558 24.6655 25.7268 24.7225 25.7985 24.7936C28.0328 27.0418 31.1486 25.1354 33.9803 27.8105C34.1795 27.9957 34.4782 27.91 34.4928 27.6684C34.5067 27.4401 34.5353 27.156 34.5353 26.8573C34.5353 23.5981 32.23 22.2041 28.9143 22.2041C27.8901 22.2041 26.8367 22.3316 25.841 22.3316C24.4464 22.3316 23.1938 22.076 22.3402 21.1368C22.1125 20.8945 21.6857 20.9516 21.6572 21.2934Z" fill="#00CA00"/>
<defs>
<filter id="filter0_d_61_112" x="0" y="0" width="58" height="58" filterUnits="userSpaceOnUse" color-interpolation-filters="sRGB">
<feFlood flood-opacity="0" result="BackgroundImageFix"/>
<feColorMatrix in="SourceAlpha" type="matrix" values="0 0 0 0 0 0 0 0 0 0 0 0 0 0 0 0 0 0 127 0" result="hardAlpha"/>
<feOffset dy="4"/>
<feGaussianBlur stdDeviation="2"/>
<feComposite in2="hardAlpha" operator="out"/>
<feColorMatrix type="matrix" values="0 0 0 0 0 0 0 0 0 0 0 0 0 0 0 0 0 0 0.25 0"/>
<feBlend mode="normal" in2="BackgroundImageFix" result="effect1_dropShadow_61_112"/>
<feBlend mode="normal" in="SourceGraphic" in2="effect1_dropShadow_61_112" result="shape"/>
</filter>
</defs>
</svg>
