<svg width="100" height="100" viewBox="0 0 48 48" fill="none" xmlns="http://www.w3.org/2000/svg">
<path d="M45 19H25.8C25.7 18.6 25.5 18.3 25.2 18C25.7 17.5 26 16.8 26 16V14C26 13.2 25.7 12.5 25.2 12C25.7 11.5 26 10.8 26 10V8C26 6.3 24.7 5 23 5H11C9.3 5 8 6.3 8 8V10C8 10.8 8.3 11.5 8.8 12C8.3 12.5 8 13.2 8 14V16C8 16.8 8.3 17.5 8.8 18C8.3 18.5 8 19.2 8 20V22C8 22.4 8.1 22.8 8.2 23.2C3.6 24 0 28.1 0 33C0 38.5 4.5 43 10 43H45C46.7 43 48 41.7 48 40V22C48 20.3 46.7 19 45 19ZM25.8 37C25.7 36.8 25.7 36.7 25.6 36.6C26 36.3 26.4 36 26.6 35.5C28.8 35.2 30.5 33.3 30.5 31.1C30.5 28.6 28.5 26.6 26 26.6V26C26 25.7 25.9 25.3 25.8 25H39.1C39.5 26.4 40.6 27.5 42 27.9V34.1C40.6 34.5 39.5 35.6 39.1 37H25.8ZM10 20C10 19.4 10.4 19 11 19H23C23.6 19 24 19.4 24 20V22C24 22.6 23.6 23 23 23H11C10.4 23 10 22.6 10 22V20ZM10 16V14C10 13.5 10.4 13 11 13H23C23.5 13 24 13.5 24 14V16C24 16.6 23.6 17 23 17H11C10.4 17 10 16.6 10 16ZM25.6 29.5C25.8 29.2 25.9 28.9 26 28.5H26.1C27.5 28.5 28.6 29.6 28.6 31C28.6 32 28 32.9 27.1 33.3V32C27 30.9 26.4 30 25.6 29.5ZM23 25C23.5 25 24 25.5 24 26V28C24 28.6 23.6 29 23 29H19.2C18.5 27.4 17.4 26 16 25H23ZM23 35H19.8C19.9 34.4 20 33.7 20 33C20 32.3 19.9 31.6 19.8 31H24C24.6 31 25 31.4 25 32V34C25 34.6 24.6 35 24 35H23ZM10 8C10 7.4 10.4 7 11 7H23C23.6 7 24 7.4 24 8V10C24 10.5 23.6 11 23 11H11C10.5 11 10 10.5 10 10V8ZM2 33C2 28.6 5.6 25 10 25C14.4 25 18 28.6 18 33C18 37.4 14.4 41 10 41C5.6 41 2 37.4 2 33ZM16 41C17.4 40 18.5 38.6 19.2 37H23C23.5 37 24 37.5 24 38V40C24 40.6 23.6 41 23 41H16ZM46 40C46 40.6 45.6 41 45 41H25.8C25.9 40.7 26 40.4 26 40V39H40C40.3 39 40.5 38.9 40.7 38.7C40.9 38.5 41 38.3 41 38C41 36.9 41.9 36 43 36C43.6 36 44 35.6 44 35V27C44 26.7 43.9 26.5 43.7 26.3C43.5 26.1 43.3 26 43 26C41.9 26 41 25.1 41 24C41 23.4 40.6 23 40 23H25.8C25.9 22.7 26 22.3 26 22V21H45C45.6 21 46 21.4 46 22V40Z" fill="#00CA00"/>
<path d="M38 33C39.1046 33 40 32.1046 40 31C40 29.8954 39.1046 29 38 29C36.8954 29 36 29.8954 36 31C36 32.1046 36.8954 33 38 33Z" fill="#00CA00"/>
</svg>
