<svg width="40" height="40" viewBox="0 0 40 40" fill="none" xmlns="http://www.w3.org/2000/svg">
<path d="M8.33326 10C8.77529 10 9.19921 10.1756 9.51177 10.4882C9.82434 10.8007 9.99993 11.2246 9.99993 11.6667V18.3333C9.99993 18.7754 10.1755 19.1993 10.4881 19.5118C10.8006 19.8244 11.2246 20 11.6666 20H27.6499L25.4833 17.85C25.1694 17.5362 24.9931 17.1105 24.9931 16.6667C24.9931 16.2228 25.1694 15.7972 25.4833 15.4833C25.7971 15.1695 26.2228 14.9932 26.6666 14.9932C27.1104 14.9932 27.5361 15.1695 27.8499 15.4833L32.8499 20.4833C33.0017 20.6418 33.1206 20.8287 33.1999 21.0333C33.3666 21.4391 33.3666 21.8942 33.1999 22.3C33.1206 22.5046 33.0017 22.6915 32.8499 22.85L27.8499 27.85C27.695 28.0062 27.5107 28.1302 27.3076 28.2148C27.1045 28.2994 26.8866 28.343 26.6666 28.343C26.4466 28.343 26.2287 28.2994 26.0256 28.2148C25.8225 28.1302 25.6382 28.0062 25.4833 27.85C25.327 27.6951 25.2031 27.5107 25.1184 27.3076C25.0338 27.1045 24.9903 26.8867 24.9903 26.6667C24.9903 26.4466 25.0338 26.2288 25.1184 26.0257C25.2031 25.8226 25.327 25.6383 25.4833 25.4833L27.6499 23.3333H11.6666C10.3405 23.3333 9.06874 22.8065 8.13106 21.8689C7.19338 20.9312 6.6666 19.6594 6.6666 18.3333V11.6667C6.6666 11.2246 6.84219 10.8007 7.15475 10.4882C7.46731 10.1756 7.89123 10 8.33326 10Z" fill="#00CA00"/>
</svg>
