<svg width="48" height="48" viewBox="0 0 48 48" fill="none" xmlns="http://www.w3.org/2000/svg">
<g clip-path="url(#clip0_51_72)">
<path d="M31.3913 17.4697C30.7838 13.9372 27.7057 11.25 24 11.25C19.8577 11.25 16.5 14.6077 16.5 18.75V29.25C16.5 33.3923 19.8577 36.75 24 36.75C28.1423 36.75 31.5 33.3923 31.5 29.25V28.308L34.5 29.25C34.5 35.049 29.799 39.75 24 39.75C18.201 39.75 13.5 35.049 13.5 29.25V18.75C13.5 12.951 18.201 8.25 24 8.25C28.0883 8.25 31.6305 10.5863 33.3652 13.9973L31.3913 17.4697Z" fill="#00CA00"/>
<path d="M16.5 24.5062V18.75C16.5 14.6077 19.8577 11.25 24 11.25C27.7057 11.25 30.7837 13.9372 31.3912 17.4697L33.3652 13.9973C31.6305 10.5863 28.0882 8.25 24 8.25C19.9057 8.25 16.3672 10.599 14.6362 14.0175C14.682 16.9815 15.0975 20.766 16.5 24.5062ZM34.5 29.25L31.5 28.308V29.25C31.5 32.406 29.5477 35.1022 26.787 36.2092C27.8497 36.7568 29.0032 37.2465 30.255 37.6695C32.8267 35.7555 34.5 32.7022 34.5 29.25Z" fill="#00CA00"/>
<path d="M24 47.25C11.1803 47.25 0.75 36.8198 0.75 24C0.75 11.1803 11.1803 0.75 24 0.75C36.8198 0.75 47.25 11.1803 47.25 24C47.25 29.0775 45.642 33.9015 42.6007 37.9508L41.4015 37.05C44.2463 33.2625 45.75 28.7498 45.75 24C45.75 12.0068 35.9933 2.25 24 2.25C12.0068 2.25 2.25 12.0068 2.25 24C2.25 35.9933 12.0068 45.75 24 45.75C29.376 45.75 33.75 41.376 33.75 36V22.5H35.25V36C35.25 42.2033 30.2033 47.25 24 47.25Z" fill="#00CA00"/>
<path d="M24 0.75C17.6812 0.75 11.946 3.28725 7.75122 7.39275C7.77147 8.0535 7.80522 8.739 7.85397 9.44475C11.8372 5.03025 17.5995 2.25 24 2.25C35.9932 2.25 45.75 12.0067 45.75 24C45.75 28.7497 44.2462 33.2625 41.4022 37.0492L42.6015 37.95C45.642 33.9015 47.25 29.0775 47.25 24C47.25 11.1802 36.8197 0.75 24 0.75Z" fill="#00CA00"/>
<path d="M33.75 22.5V36C33.75 38.0602 33.1035 39.9705 32.0085 41.5462C32.5043 41.6895 33.012 41.8245 33.528 41.9535C34.6125 40.224 35.25 38.187 35.25 36V22.5H33.75Z" fill="#00CA00"/>
<path d="M39.75 22.5C39.75 21.7072 39.5535 20.9265 39.177 20.2283L34.5 12L29.823 20.2283C29.4465 20.9265 29.25 21.7072 29.25 22.5V24C29.25 26.8995 31.6005 29.25 34.5 29.25C37.3995 29.25 39.75 26.8995 39.75 24V22.5Z" fill="#00CA00"/>
<path d="M35.6107 13.9539L32.823 18.8581C32.4465 19.5571 32.25 20.3379 32.25 21.1306V22.6306C32.25 25.5301 34.6005 27.8806 37.5 27.8806C37.6898 27.8806 37.8765 27.8694 38.061 27.8499C39.0975 26.8906 39.75 25.5234 39.75 24.0001V22.5001C39.75 21.7074 39.5535 20.9266 39.177 20.2284L35.6107 13.9539Z" fill="#86EE88"/>
<path d="M38.643 25.5757C39.4785 25.2052 39.3705 22.8697 38.6828 21.2384C38.217 20.1337 37.137 18.5249 36.291 18.7207C35.448 18.9149 35.0093 20.8604 35.3865 22.3769C35.8695 24.3179 37.7895 25.9537 38.643 25.5757Z" fill="#E7FCE7"/>
</g>
<defs>
<clipPath id="clip0_51_72">
<rect width="48" height="48" fill="white"/>
</clipPath>
</defs>
</svg>
