<svg width="40" height="40" viewBox="0 0 40 40" fill="none" xmlns="http://www.w3.org/2000/svg">
<g clip-path="url(#clip0_113_784)">
<path d="M15.5556 1.875V6.25H11.6667C10.7431 6.25 10 7.08594 10 8.125V11.875C10 12.9141 10.7431 13.75 11.6667 13.75H15.5556V18.125C15.5556 19.1641 16.2986 20 17.2222 20H20.5556C21.4792 20 22.2222 19.1641 22.2222 18.125V13.75H26.1111C27.0347 13.75 27.7778 12.9141 27.7778 11.875V8.125C27.7778 7.08594 27.0347 6.25 26.1111 6.25H22.2222V1.875C22.2222 0.835938 21.4792 0 20.5556 0H17.2222C16.2986 0 15.5556 0.835938 15.5556 1.875ZM38.8681 30.6406C40.1042 29.6172 40.3681 27.6641 39.4583 26.2734C38.5486 24.8828 36.8125 24.5859 35.5764 25.6094L27.2639 32.5H18.8889C18.2778 32.5 17.7778 31.9375 17.7778 31.25C17.7778 30.5625 18.2778 30 18.8889 30H24.4444C25.6736 30 26.6667 28.8828 26.6667 27.5C26.6667 26.1172 25.6736 25 24.4444 25H13.4514C11.4306 25 9.47222 25.7734 7.89583 27.1875L4.77778 30H2.22222C0.993056 30 0 31.1172 0 32.5V37.5C0 38.8828 0.993056 40 2.22222 40H24.4792C26.4931 40 28.4583 39.2734 30.0833 37.9297L38.875 30.6406H38.8681Z" fill="white"/>
</g>
<defs>
<clipPath id="clip0_113_784">
<rect width="40" height="40" fill="white"/>
</clipPath>
</defs>
</svg>
