<svg width="40" height="40" viewBox="0 0 40 40" fill="none" xmlns="http://www.w3.org/2000/svg">
<path d="M23.3517 1.89917C22.1877 1.92261 21.3517 2.14917 20.797 2.55542L13.1955 6.62573L8.96892 12.375C8.0783 13.75 8.71111 16.4062 11.4924 14.7031L14.5392 10.6875C18.4064 7.3523 26.2971 8.88276 22.5549 15.5781C20.7189 19.4531 21.5783 21.3437 23.9455 22.1406L25.0236 18.5156C26.8908 14.3125 30.3752 13.5546 30.2346 10.164L38.6096 10.7656L38.5314 2.00854L23.3517 1.89917ZM19.1252 9.97651C17.7658 9.95308 16.4299 10.5156 15.4611 11.3281L12.4064 15.3437C13.2424 16.0078 14.0861 15.6484 14.922 14.8437C15.9064 15.3437 16.672 14.5703 17.297 13.0234C17.5549 11.9687 17.9377 11.2265 19.1252 9.97651ZM12.9064 17.4765C12.8752 17.4765 12.8361 17.4765 12.8049 17.4843C12.547 17.539 12.2424 17.8125 12.0392 18.4375C11.8283 19.0625 11.7814 19.9531 11.9689 20.9062C12.1564 21.8515 12.547 22.6562 12.9845 23.1562C13.4064 23.6484 13.797 23.789 14.0549 23.7343C14.3205 23.6875 14.6174 23.4062 14.8205 22.789C15.0314 22.164 15.0861 21.2656 14.8986 20.3203C14.7033 19.3671 14.3127 18.5625 13.883 18.0703C13.508 17.6328 13.1642 17.4765 12.9064 17.4765ZM19.3595 25.8203C18.7424 25.8281 17.9689 26.0234 17.2111 26.3906C16.3439 26.8203 15.6642 27.414 15.297 27.9609C14.9299 28.5 14.8986 28.9062 15.0158 29.1484C15.133 29.3828 15.4767 29.6093 16.133 29.6406C16.7892 29.6796 17.672 29.5 18.5392 29.0703C19.4064 28.6406 20.0861 28.0546 20.4533 27.5078C20.8205 26.9687 20.8517 26.5546 20.7345 26.3203C20.6174 26.0781 20.2736 25.8593 19.6174 25.8281C19.5314 25.8203 19.4533 25.8203 19.3595 25.8203ZM11.7345 33.289C11.3674 33.2968 11.0314 33.3515 10.7345 33.4375C10.0705 33.6328 9.68767 33.9843 9.56267 34.3984C9.42986 34.8203 9.56267 35.3203 10.008 35.8593C10.4611 36.3906 11.2189 36.8984 12.1564 37.1796C13.0861 37.4609 13.9924 37.4531 14.6642 37.25C15.3361 37.0546 15.7189 36.7031 15.8439 36.289C15.9689 35.8671 15.8439 35.3671 15.3908 34.8281C14.9455 34.2968 14.1877 33.789 13.2502 33.5078C12.7189 33.3515 12.2033 33.2812 11.7345 33.289Z" fill="white"/>
</svg>
