<svg width="54" height="54" viewBox="0 0 54 54" fill="none" xmlns="http://www.w3.org/2000/svg">
<circle cx="27" cy="27" r="26.5" fill="white" stroke="#00CA00"/>
<path d="M14.6598 32.4578C13.6971 32.4578 13.439 33.122 13.9684 33.8678L17.0059 38.1799C17.4531 38.8175 18.104 38.8036 18.538 38.1799L21.5755 33.8545C22.0904 33.122 21.8468 32.4578 20.8841 32.4578H18.9852V22.2605C18.9852 19.9144 20.4091 18.4361 22.3617 18.4361C24.3283 18.4361 25.7927 19.8872 25.7927 22.2605V31.5489C25.7927 35.4814 28.247 37.9768 31.6374 37.9768C35.0139 37.9768 37.4405 35.4814 37.4405 31.5489V21.5413H39.3393C40.3021 21.5413 40.5601 20.8771 40.0307 20.1313L37.0071 15.8054C36.5732 15.1955 35.9223 15.1817 35.4745 15.8054L32.437 20.118C31.8949 20.8771 32.1523 21.5413 33.129 21.5413H35.0139V31.7386C35.0139 34.0714 33.6034 35.5491 31.6374 35.5491C29.6708 35.5491 28.2065 34.098 28.2065 31.7386V22.4502C28.2065 18.5177 25.7522 16.0223 22.3617 16.0223C18.9852 16.0223 16.5587 18.5177 16.5587 22.4502V32.4578H14.6598Z" fill="#00CA00"/>
</svg>
