<svg width="147" height="147" viewBox="0 0 147 147" fill="none" xmlns="http://www.w3.org/2000/svg">
<g filter="url(#filter0_d_69_134)">
<circle cx="73.5" cy="69.5" r="69.5" fill="white"/>
</g>
<path d="M73.4998 114.063C95.5348 114.063 113.85 95.7867 113.85 73.7129C113.85 60.421 107.125 48.4744 96.9577 41.0765C95.2192 39.7313 93.0418 40.1667 92.0527 41.7888C91.0637 43.4496 91.5785 45.3096 93.16 46.5367C101.587 52.5489 107.085 62.4785 107.125 73.7129C107.164 92.3874 92.1321 107.338 73.4998 107.338C54.8271 107.338 39.9131 92.384 39.9131 73.7129C39.9131 57.6918 50.9112 44.3611 65.8656 40.9583V46.6549C65.8656 49.4635 67.8033 50.2162 69.9384 48.6719L82.5974 39.8106C84.3781 38.5852 84.4186 36.6864 82.5974 35.38L69.9789 26.5187C67.8016 24.9372 65.8656 25.6883 65.8656 28.5374V34.1141C47.3498 37.7143 33.1499 54.2502 33.1499 73.7129C33.1499 95.7867 51.426 114.063 73.4998 114.063ZM53.0869 59.1956C52.8894 61.054 52.7324 62.8752 52.7324 64.6542C52.7324 78.1435 61.6713 88.588 73.223 88.588C78.2866 88.588 82.994 86.4106 85.0515 82.8121C86.871 85.1853 87.7808 88.0327 89.2441 92.4633C89.4028 92.8599 89.7978 93.0186 90.1556 92.8194L91.5396 92.1477C92.5675 91.7122 92.9237 91.1586 92.9237 90.0902C92.9237 87.1229 89.1648 82.7311 87.2272 80.9521C79.117 73.3973 66.6167 77.7874 63.5296 69.4798C63.452 69.3228 63.4115 69.2435 63.4115 69.1253C63.4115 68.808 63.6883 68.57 63.9263 68.57C64.2031 68.57 64.4006 68.7287 64.5997 68.9261C70.8111 75.1763 79.4731 69.8764 87.3453 77.3131C87.8989 77.8279 88.7294 77.5899 88.7699 76.9181C88.8087 76.2835 88.888 75.4936 88.888 74.6632C88.888 65.6027 82.4792 61.7274 73.2618 61.7274C70.4144 61.7274 67.486 62.0819 64.7179 62.0819C60.8409 62.0819 57.3588 61.3713 54.9857 58.7602C54.3528 58.0867 53.1662 58.2454 53.0869 59.1956Z" fill="#00CA00"/>
<defs>
<filter id="filter0_d_69_134" x="0" y="0" width="147" height="147" filterUnits="userSpaceOnUse" color-interpolation-filters="sRGB">
<feFlood flood-opacity="0" result="BackgroundImageFix"/>
<feColorMatrix in="SourceAlpha" type="matrix" values="0 0 0 0 0 0 0 0 0 0 0 0 0 0 0 0 0 0 127 0" result="hardAlpha"/>
<feOffset dy="4"/>
<feGaussianBlur stdDeviation="2"/>
<feComposite in2="hardAlpha" operator="out"/>
<feColorMatrix type="matrix" values="0 0 0 0 0 0 0 0 0 0.792157 0 0 0 0 0 0 0 0 0.5 0"/>
<feBlend mode="normal" in2="BackgroundImageFix" result="effect1_dropShadow_69_134"/>
<feBlend mode="normal" in="SourceGraphic" in2="effect1_dropShadow_69_134" result="shape"/>
</filter>
</defs>
</svg>
