<svg width="40" height="40" viewBox="0 0 40 40" fill="none" xmlns="http://www.w3.org/2000/svg">
<path d="M6.66683 19.1667L5.8585 19.3683C5.13737 19.5486 4.49717 19.9647 4.03967 20.5505C3.58217 21.1364 3.33361 21.8583 3.3335 22.6017V25.73C3.33361 26.4733 3.58217 27.1953 4.03967 27.7811C4.49717 28.367 5.13737 28.7831 5.8585 28.9633L8.7585 29.6883C8.90586 29.725 9.05964 29.7277 9.20818 29.6961C9.35672 29.6645 9.49611 29.5995 9.61579 29.506C9.73546 29.4125 9.83227 29.293 9.89887 29.1565C9.96547 29.02 10.0001 28.8702 10.0002 28.7183V19.6133C10.0002 19.4613 9.96551 19.3112 9.89882 19.1746C9.83212 19.038 9.73515 18.9184 9.61527 18.8248C9.4954 18.7313 9.35577 18.6664 9.20702 18.6349C9.05827 18.6035 8.9043 18.6063 8.75683 18.6433L6.66683 19.1667ZM6.66683 19.1667V18.3333C6.66683 14.7971 8.07159 11.4057 10.5721 8.90524C13.0726 6.40476 16.4639 5 20.0002 5C23.5364 5 26.9278 6.40476 29.4283 8.90524C31.9287 11.4057 33.3335 14.7971 33.3335 18.3333V19.1667M33.3335 19.1667L34.1418 19.3683C34.863 19.5486 35.5032 19.9647 35.9607 20.5505C36.4182 21.1364 36.6667 21.8583 36.6668 22.6017V25.73C36.6667 26.4733 36.4182 27.1953 35.9607 27.7811C35.5032 28.367 34.863 28.7831 34.1418 28.9633L33.3335 29.1667M33.3335 19.1667L31.2418 18.6433C31.0945 18.6066 30.9407 18.604 30.7921 18.6356C30.6436 18.6672 30.5042 18.7322 30.3845 18.8257C30.2649 18.9191 30.1681 19.0387 30.1015 19.1751C30.0349 19.3116 30.0002 19.4615 30.0002 19.6133V28.7183C30.0002 28.8702 30.0349 29.02 30.1015 29.1565C30.1681 29.293 30.2649 29.4125 30.3845 29.506C30.5042 29.5995 30.6436 29.6645 30.7921 29.6961C30.9407 29.7277 31.0945 29.725 31.2418 29.6883L33.3335 29.1667M33.3335 29.1667V30.8333C33.3335 31.7174 32.9823 32.5652 32.3572 33.1904C31.7321 33.8155 30.8842 34.1667 30.0002 34.1667H25.0002M25.0002 34.1667C25.0002 33.5036 24.7368 32.8677 24.2679 32.3989C23.7991 31.9301 23.1632 31.6667 22.5002 31.6667H17.5002C16.8371 31.6667 16.2012 31.9301 15.7324 32.3989C15.2636 32.8677 15.0002 33.5036 15.0002 34.1667C15.0002 34.8297 15.2636 35.4656 15.7324 35.9344C16.2012 36.4033 16.8371 36.6667 17.5002 36.6667H22.5002C23.1632 36.6667 23.7991 36.4033 24.2679 35.9344C24.7368 35.4656 25.0002 34.8297 25.0002 34.1667Z" stroke="white" stroke-width="3"/>
</svg>
