<svg width="32" height="32" viewBox="0 0 32 32" fill="none" xmlns="http://www.w3.org/2000/svg">
<path d="M6.6666 14.6667H21.5599L15.0533 8.16C14.5333 7.64 14.5333 6.78666 15.0533 6.26666C15.1766 6.14306 15.3231 6.045 15.4844 5.97809C15.6457 5.91118 15.8186 5.87674 15.9933 5.87674C16.1679 5.87674 16.3408 5.91118 16.5021 5.97809C16.6634 6.045 16.8099 6.14306 16.9333 6.26666L25.7199 15.0533C25.8435 15.1767 25.9416 15.3232 26.0085 15.4845C26.0754 15.6458 26.1099 15.8187 26.1099 15.9933C26.1099 16.168 26.0754 16.3409 26.0085 16.5022C25.9416 16.6635 25.8435 16.81 25.7199 16.9333L16.9333 25.72C16.8098 25.8434 16.6633 25.9414 16.502 26.0082C16.3407 26.075 16.1678 26.1094 15.9933 26.1094C15.8187 26.1094 15.6458 26.075 15.4845 26.0082C15.3233 25.9414 15.1767 25.8434 15.0533 25.72C14.9298 25.5966 14.8319 25.45 14.7651 25.2887C14.6983 25.1274 14.6639 24.9546 14.6639 24.78C14.6639 24.6054 14.6983 24.4326 14.7651 24.2713C14.8319 24.11 14.9298 23.9634 15.0533 23.84L21.5599 17.3333H6.6666C5.93327 17.3333 5.33327 16.7333 5.33327 16C5.33327 15.2667 5.93327 14.6667 6.6666 14.6667Z" fill="#00CA00"/>
</svg>
