<svg width="20" height="20" viewBox="0 0 20 20" fill="none" xmlns="http://www.w3.org/2000/svg">
<path d="M18.3334 5.94946V14.2828C18.3334 14.8353 18.1139 15.3652 17.7232 15.7559C17.3325 16.1466 16.8026 16.3661 16.2501 16.3661H3.75008C3.19755 16.3661 2.66764 16.1466 2.27694 15.7559C1.88624 15.3652 1.66675 14.8353 1.66675 14.2828V5.94946" stroke="#170F49" stroke-width="1.4" stroke-linecap="round" stroke-linejoin="round"/>
<path d="M18.3334 5.94954C18.3334 5.39701 18.1139 4.86711 17.7232 4.47641C17.3325 4.0857 16.8026 3.86621 16.2501 3.86621H3.75008C3.19755 3.86621 2.66764 4.0857 2.27694 4.47641C1.88624 4.86711 1.66675 5.39701 1.66675 5.94954L8.89591 10.4634C9.22702 10.6704 9.60962 10.7801 10.0001 10.7801C10.3905 10.7801 10.7731 10.6704 11.1042 10.4634L18.3334 5.94954Z" stroke="#170F49" stroke-width="1.4" stroke-linecap="round" stroke-linejoin="round"/>
</svg>
