<svg width="1439" height="377" viewBox="0 0 1439 377" fill="none" xmlns="http://www.w3.org/2000/svg">
<path d="M1439 377V108.23H1426.7V116.321H1419.07V126.627H1418.91V116.321H1400.4V126.627H1394.45V131.788H1385.97V94.2458H1364.77V124.429H1354.58V129.573H1348.63V120.001H1336.75V106.016H1328.27V79.5121H1307.05V101.604H1296.02V108.23H1285.01V93.4967H1271.42V83.9239H1259.55V94.2458H1250.2V107.498H1241.72V103.069H1233.55V59.6341H1223.38V47.8471H1181.8V14.7171H1173.32V22.8248H1148.71V43.4353H1114.76V111.543H1098.65V135.467H1089.32V128.108H1081.69V59.6341L1073.19 52.2756H1068.1V43.4353H1044.35V52.2756H1035.43V57.0536L1030.77 61.0991V93.4967H1019.73V87.6198H1011.25V67.3589H990.473L977.311 55.9548H973.071V73.6186H961.194V81.7263H940.818V109.695H915.377V103.069H905.189V53.0081H883.124V39.0235H877.195V58.169H872.092V53.0081H853.001V83.5577L844.098 91.2991V75.8329H803.365V96.4434H789.8V89.8174H748.222V105.284H733.794V67.7252H712.574V97.9251H702.405V103.069H696.457V93.4967H684.58V79.5121H676.1V53.0081H654.879V75.1003H651.637V5.89349H641.468V0H621.092V5.16096H607.527V53.7406H597.339V80.9938H589.549V76.5654L578.67 85.7552V45.6496H532.852V104.551H515.028V115.589H508.101V123.68H495.361V114.124H492.982V64.0459H481.95V57.4199H472.606V33.1301H438.665V108.83L435.134 111.91V120.001H425.944V100.872H416.619V80.2447H404.724V69.2068H387.763V37.5418H341.945V106.749H334.309V49.3288H318.192V58.9016L306.315 69.2068V94.2458H268.978V116.321H258.79V69.2068H247.757V13.0189H212.972L193.325 30.0668V95.7109H177.342V69.9394H150.174V80.9938H136.609V95.7109H123.025V48.5963H88.2395V78.0471L77.6293 87.2369V123.68H67.8824V109.695H54.2983V138.414H32.2528V151.666H19.5128V125.162H0V377H1439Z" fill="#00CA00" fill-opacity="0.1"/>
</svg>
