<svg width="40" height="40" viewBox="0 0 40 40" fill="none" xmlns="http://www.w3.org/2000/svg">
<path fill-rule="evenodd" clip-rule="evenodd" d="M14.9999 3.75C15.3314 3.75 15.6494 3.8817 15.8838 4.11612C16.1182 4.35054 16.2499 4.66848 16.2499 5V7.08333H23.7499V5C23.7499 4.66848 23.8816 4.35054 24.116 4.11612C24.3505 3.8817 24.6684 3.75 24.9999 3.75C25.3314 3.75 25.6494 3.8817 25.8838 4.11612C26.1182 4.35054 26.2499 4.66848 26.2499 5V7.08333H28.3333C29.5488 7.08333 30.7146 7.56622 31.5742 8.42576C32.4337 9.2853 32.9166 10.4511 32.9166 11.6667V30C32.9166 31.2156 32.4337 32.3814 31.5742 33.2409C30.7146 34.1004 29.5488 34.5833 28.3333 34.5833H11.6666C10.451 34.5833 9.28522 34.1004 8.42568 33.2409C7.56614 32.3814 7.08325 31.2156 7.08325 30V11.6667C7.08325 10.4511 7.56614 9.2853 8.42568 8.42576C9.28522 7.56622 10.451 7.08333 11.6666 7.08333H13.7499V5C13.7499 4.66848 13.8816 4.35054 14.116 4.11612C14.3505 3.8817 14.6684 3.75 14.9999 3.75ZM23.7499 9.58333V11.6667C23.7499 11.9982 23.8816 12.3161 24.116 12.5506C24.3505 12.785 24.6684 12.9167 24.9999 12.9167C25.3314 12.9167 25.6494 12.785 25.8838 12.5506C26.1182 12.3161 26.2499 11.9982 26.2499 11.6667V9.58333H28.3333C29.4833 9.58333 30.4166 10.5167 30.4166 11.6667V16.25H9.58325V11.6667C9.58325 10.5167 10.5166 9.58333 11.6666 9.58333H13.7499V11.6667C13.7499 11.9982 13.8816 12.3161 14.116 12.5506C14.3505 12.785 14.6684 12.9167 14.9999 12.9167C15.3314 12.9167 15.6494 12.785 15.8838 12.5506C16.1182 12.3161 16.2499 11.9982 16.2499 11.6667V9.58333H23.7499ZM9.58325 18.75V30C9.58325 31.15 10.5166 32.0833 11.6666 32.0833H28.3333C29.4833 32.0833 30.4166 31.15 30.4166 30V18.75H9.58325Z" fill="#00CA00"/>
</svg>
