<svg width="40" height="40" viewBox="0 0 40 40" fill="none" xmlns="http://www.w3.org/2000/svg">
<path fill-rule="evenodd" clip-rule="evenodd" d="M34.8733 19.5834H30.3833C28.01 19.5834 26.2483 21.3484 26.2483 23.3334C26.2483 25.3184 28.01 27.0834 30.3817 27.0834H34.9117C35.255 27.0617 35.4033 26.83 35.415 26.69V19.9767C35.4033 19.8367 35.255 19.605 34.9117 19.585L34.8733 19.5834ZM34.75 17.0834C34.86 17.0834 34.9667 17.0834 35.0667 17.09C36.5167 17.1784 37.8017 18.2734 37.91 19.8034C37.9167 19.9034 37.9167 20.0117 37.9167 20.1117V26.555C37.9167 26.655 37.9167 26.7634 37.91 26.8634C37.8017 28.3934 36.5167 29.4884 35.065 29.5784C34.9667 29.5834 34.86 29.5834 34.7483 29.5834H30.385C26.81 29.5834 23.75 26.87 23.75 23.3334C23.75 19.7967 26.81 17.0834 30.3833 17.0834H34.7217H34.75Z" fill="white"/>
<path d="M31.6668 23.3333C31.6668 23.7753 31.4912 24.1992 31.1787 24.5118C30.8661 24.8244 30.4422 25 30.0002 25C29.5581 25 29.1342 24.8244 28.8217 24.5118C28.5091 24.1992 28.3335 23.7753 28.3335 23.3333C28.3335 22.8913 28.5091 22.4673 28.8217 22.1548C29.1342 21.8422 29.5581 21.6666 30.0002 21.6666C30.4422 21.6666 30.8661 21.8422 31.1787 22.1548C31.4912 22.4673 31.6668 22.8913 31.6668 23.3333Z" fill="white"/>
<path fill-rule="evenodd" clip-rule="evenodd" d="M34.7502 17.0833C35.2283 17.0652 35.7043 17.1564 36.1418 17.35C35.9635 14.6733 35.4718 12.61 33.9318 11.0683C32.6835 9.82162 31.1018 9.26829 29.1485 9.00495L29.0785 8.99662C29.061 8.98339 29.0433 8.97061 29.0252 8.95829L22.7985 4.82995C21.7184 4.12508 20.4566 3.74976 19.1668 3.74976C17.8771 3.74976 16.6152 4.12508 15.5352 4.82995L9.31016 8.95829C9.2915 8.97059 9.27316 8.98337 9.25516 8.99662L9.18516 9.00495C7.23183 9.26829 5.65016 9.82162 4.40183 11.0683C3.15516 12.3166 2.60183 13.8983 2.3385 15.8516C2.0835 17.7516 2.0835 20.1766 2.0835 23.24V23.4266C2.0835 26.49 2.0835 28.9166 2.3385 30.815C2.60183 32.7683 3.15516 34.35 4.40183 35.5983C5.65016 36.845 7.23183 37.3983 9.18516 37.6616C11.0852 37.9166 13.5102 37.9166 16.5735 37.9166H21.7602C24.8235 37.9166 27.2502 37.9166 29.1485 37.6616C31.1018 37.3983 32.6835 36.845 33.9318 35.5983C35.4718 34.0566 35.9635 31.9933 36.1418 29.315C35.8052 29.465 35.4418 29.555 35.0652 29.5783C34.9668 29.5833 34.8602 29.5833 34.7485 29.5833H33.6135C33.4235 31.82 32.9952 33 32.1635 33.83C31.4585 34.535 30.4918 34.9583 28.8152 35.1833C27.1035 35.4133 24.8452 35.4166 21.6668 35.4166H16.6668C13.4885 35.4166 11.2318 35.4133 9.51683 35.1833C7.84183 34.9583 6.87516 34.535 6.17016 33.83C5.46516 33.125 5.04183 32.1583 4.81683 30.4816C4.58683 28.77 4.5835 26.5116 4.5835 23.3333C4.5835 20.155 4.58683 17.8983 4.81683 16.1833C5.04183 14.5083 5.46516 13.5416 6.17016 12.8366C6.87516 12.1316 7.84183 11.7083 9.5185 11.4833C11.2318 11.2533 13.4885 11.25 16.6668 11.25H21.6668C24.8452 11.25 27.1035 11.2533 28.8168 11.4833C30.4918 11.7083 31.4585 12.1316 32.1635 12.8366C32.9952 13.6666 33.4235 14.8483 33.6135 17.0833H34.7218H34.7502ZM16.5735 8.74995H21.7602C22.6218 8.74995 23.4318 8.74995 24.1935 8.75495L21.4168 6.91329C20.0835 6.02995 18.2502 6.02995 16.9168 6.91329L14.1385 8.75495C14.9018 8.74995 15.7118 8.74995 16.5718 8.74995" fill="white"/>
<path d="M10 15.4166C9.66848 15.4166 9.35054 15.5483 9.11612 15.7827C8.8817 16.0172 8.75 16.3351 8.75 16.6666C8.75 16.9981 8.8817 17.3161 9.11612 17.5505C9.35054 17.7849 9.66848 17.9166 10 17.9166H16.6667C16.9982 17.9166 17.3161 17.7849 17.5505 17.5505C17.785 17.3161 17.9167 16.9981 17.9167 16.6666C17.9167 16.3351 17.785 16.0172 17.5505 15.7827C17.3161 15.5483 16.9982 15.4166 16.6667 15.4166H10Z" fill="white"/>
<path d="M31.6668 23.3333C31.6668 23.7753 31.4912 24.1992 31.1787 24.5118C30.8661 24.8244 30.4422 25 30.0002 25C29.5581 25 29.1342 24.8244 28.8217 24.5118C28.5091 24.1992 28.3335 23.7753 28.3335 23.3333C28.3335 22.8913 28.5091 22.4673 28.8217 22.1548C29.1342 21.8422 29.5581 21.6666 30.0002 21.6666C30.4422 21.6666 30.8661 21.8422 31.1787 22.1548C31.4912 22.4673 31.6668 22.8913 31.6668 23.3333Z" fill="white"/>
</svg>
