<svg width="40" height="40" viewBox="0 0 40 40" fill="none" xmlns="http://www.w3.org/2000/svg">
<path d="M5 20C5 21.9698 5.38799 23.9204 6.14181 25.7403C6.89563 27.5601 8.00052 29.2137 9.3934 30.6066C10.7863 31.9995 12.4399 33.1044 14.2597 33.8582C16.0796 34.612 18.0302 35 20 35C21.9698 35 23.9204 34.612 25.7403 33.8582C27.5601 33.1044 29.2137 31.9995 30.6066 30.6066C31.9995 29.2137 33.1044 27.5601 33.8582 25.7403C34.612 23.9204 35 21.9698 35 20C35 18.0302 34.612 16.0796 33.8582 14.2597C33.1044 12.4399 31.9995 10.7863 30.6066 9.3934C29.2137 8.00052 27.5601 6.89563 25.7403 6.14181C23.9204 5.38799 21.9698 5 20 5C18.0302 5 16.0796 5.38799 14.2597 6.14181C12.4399 6.89563 10.7863 8.00052 9.3934 9.3934C8.00052 10.7863 6.89563 12.4399 6.14181 14.2597C5.38799 16.0796 5 18.0302 5 20Z" stroke="white" stroke-width="3" stroke-linecap="round" stroke-linejoin="round"/>
<path d="M16.6665 20C16.6665 20.8841 17.0177 21.7319 17.6428 22.357C18.2679 22.9822 19.1158 23.3334 19.9998 23.3334M16.6665 20C16.6665 19.116 17.0177 18.2681 17.6428 17.643C18.2679 17.0179 19.1158 16.6667 19.9998 16.6667C20.8839 16.6667 21.7317 17.0179 22.3569 17.643C22.982 18.2681 23.3332 19.116 23.3332 20M16.6665 20L5.4165 16.6667M19.9998 23.3334C20.8839 23.3334 21.7317 22.9822 22.3569 22.357C22.982 21.7319 23.3332 20.8841 23.3332 20M19.9998 23.3334V35M23.3332 20L34.5832 16.6667" stroke="white" stroke-width="3" stroke-linecap="round" stroke-linejoin="round"/>
</svg>
