<svg width="48" height="48" viewBox="0 0 48 48" fill="none" xmlns="http://www.w3.org/2000/svg">
<mask id="path-1-inside-1_50_57" fill="white">
<path d="M24 46.5C11.5935 46.5 1.5 36.4065 1.5 24C1.5 18.531 3.4845 13.26 7.0905 9.1575C7.365 8.847 7.839 8.8185 8.1495 9.09C8.46 9.363 8.49 9.8385 8.2185 10.149C4.8525 13.9755 3 18.8955 3 24C3 35.58 12.42 45 24 45C35.58 45 45 35.58 45 24C45 12.42 35.58 3 24 3C20.244 3 16.56 4.002 13.3455 5.8995C12.993 6.105 12.531 5.991 12.3195 5.634C12.108 5.2785 12.2265 4.818 12.585 4.6065C16.029 2.574 19.9755 1.5 24 1.5C36.4065 1.5 46.5 11.5935 46.5 24C46.5 36.4065 36.4065 46.5 24 46.5Z"/>
</mask>
<path d="M24 46.5C11.5935 46.5 1.5 36.4065 1.5 24C1.5 18.531 3.4845 13.26 7.0905 9.1575C7.365 8.847 7.839 8.8185 8.1495 9.09C8.46 9.363 8.49 9.8385 8.2185 10.149C4.8525 13.9755 3 18.8955 3 24C3 35.58 12.42 45 24 45C35.58 45 45 35.58 45 24C45 12.42 35.58 3 24 3C20.244 3 16.56 4.002 13.3455 5.8995C12.993 6.105 12.531 5.991 12.3195 5.634C12.108 5.2785 12.2265 4.818 12.585 4.6065C16.029 2.574 19.9755 1.5 24 1.5C36.4065 1.5 46.5 11.5935 46.5 24C46.5 36.4065 36.4065 46.5 24 46.5Z" fill="#263238"/>
<path d="M7.0905 9.1575L5.59209 7.83282L5.58831 7.83711L7.0905 9.1575ZM8.1495 9.09L9.47011 7.58799L9.46599 7.5844L8.1495 9.09ZM8.2185 10.149L9.72019 11.47L9.7241 11.4655L8.2185 10.149ZM13.3455 5.8995L14.3528 7.62735L14.3622 7.62182L13.3455 5.8995ZM12.3195 5.634L14.0402 4.61459L14.0383 4.61141L12.3195 5.634ZM12.585 4.6065L13.6012 6.32907L13.6015 6.32892L12.585 4.6065ZM24 44.5C12.6981 44.5 3.5 35.3019 3.5 24H-0.5C-0.5 37.5111 10.4889 48.5 24 48.5V44.5ZM3.5 24C3.5 19.016 5.30821 14.2146 8.59269 10.4779L5.58831 7.83711C1.66079 12.3054 -0.5 18.046 -0.5 24H3.5ZM8.58891 10.4822C8.13053 11.0007 7.34616 11.0443 6.83301 10.5956L9.46599 7.5844C8.33184 6.59269 6.59947 6.69333 5.59209 7.83282L8.58891 10.4822ZM6.8289 10.592C6.30831 10.1343 6.26149 9.34875 6.7129 8.83251L9.7241 11.4655C10.7185 10.3282 10.6117 8.59172 9.4701 7.588L6.8289 10.592ZM6.71682 8.82804C3.02876 13.0206 1 18.4106 1 24H5C5 19.3804 6.67624 14.9304 9.72018 11.47L6.71682 8.82804ZM1 24C1 36.6846 11.3154 47 24 47V43C13.5246 43 5 34.4754 5 24H1ZM24 47C36.6846 47 47 36.6846 47 24H43C43 34.4754 34.4754 43 24 43V47ZM47 24C47 11.3154 36.6846 1 24 1V5C34.4754 5 43 13.5246 43 24H47ZM24 1C19.889 1 15.8536 2.09655 12.3288 4.17718L14.3622 7.62182C17.2664 5.90745 20.599 5 24 5V1ZM12.3382 4.17168C12.9211 3.83189 13.6832 4.01194 14.0402 4.61459L10.5988 6.65341C11.3788 7.97006 13.0649 8.37811 14.3528 7.62732L12.3382 4.17168ZM14.0383 4.61141C14.3969 5.21416 14.1901 5.9817 13.6012 6.32907L11.5688 2.88393C10.2629 3.6543 9.81909 5.34284 10.6007 6.65659L14.0383 4.61141ZM13.6015 6.32892C16.7355 4.47936 20.3306 3.5 24 3.5V-0.5C19.6204 -0.5 15.3225 0.668635 11.5685 2.88408L13.6015 6.32892ZM24 3.5C35.3019 3.5 44.5 12.6981 44.5 24H48.5C48.5 10.4889 37.5111 -0.5 24 -0.5V3.5ZM44.5 24C44.5 35.3019 35.3019 44.5 24 44.5V48.5C37.5111 48.5 48.5 37.5111 48.5 24H44.5Z" fill="#00CA00" mask="url(#path-1-inside-1_50_57)"/>
<mask id="path-3-inside-2_50_57" fill="white">
<path d="M24 42.75C13.6605 42.75 5.25 34.3395 5.25 24C5.25 13.6605 13.6605 5.25 24 5.25C34.3395 5.25 42.75 13.6605 42.75 24C42.75 34.3395 34.3395 42.75 24 42.75ZM24 6.75C14.4885 6.75 6.75 14.4885 6.75 24C6.75 33.5115 14.4885 41.25 24 41.25C33.5115 41.25 41.25 33.5115 41.25 24C41.25 14.4885 33.5115 6.75 24 6.75Z"/>
</mask>
<path d="M24 42.75C13.6605 42.75 5.25 34.3395 5.25 24C5.25 13.6605 13.6605 5.25 24 5.25C34.3395 5.25 42.75 13.6605 42.75 24C42.75 34.3395 34.3395 42.75 24 42.75ZM24 6.75C14.4885 6.75 6.75 14.4885 6.75 24C6.75 33.5115 14.4885 41.25 24 41.25C33.5115 41.25 41.25 33.5115 41.25 24C41.25 14.4885 33.5115 6.75 24 6.75Z" fill="#263238"/>
<path d="M24 40.75C14.7651 40.75 7.25 33.2349 7.25 24H3.25C3.25 35.4441 12.5559 44.75 24 44.75V40.75ZM7.25 24C7.25 14.7651 14.7651 7.25 24 7.25V3.25C12.5559 3.25 3.25 12.5559 3.25 24H7.25ZM24 7.25C33.2349 7.25 40.75 14.7651 40.75 24H44.75C44.75 12.5559 35.4441 3.25 24 3.25V7.25ZM40.75 24C40.75 33.2349 33.2349 40.75 24 40.75V44.75C35.4441 44.75 44.75 35.4441 44.75 24H40.75ZM24 4.75C13.3839 4.75 4.75 13.3839 4.75 24H8.75C8.75 15.5931 15.5931 8.75 24 8.75V4.75ZM4.75 24C4.75 34.6161 13.3839 43.25 24 43.25V39.25C15.5931 39.25 8.75 32.4069 8.75 24H4.75ZM24 43.25C34.6161 43.25 43.25 34.6161 43.25 24H39.25C39.25 32.4069 32.4069 39.25 24 39.25V43.25ZM43.25 24C43.25 13.3839 34.6161 4.75 24 4.75V8.75C32.4069 8.75 39.25 15.5931 39.25 24H43.25Z" fill="#00CA00" mask="url(#path-3-inside-2_50_57)"/>
<path d="M31.2893 11.8523C31.2887 11.8528 31.2881 11.8533 31.2876 11.8538C31.2815 11.859 31.2755 11.8637 31.2695 11.8681C31.2171 11.9062 31.1655 11.9163 31.1297 11.9163C31.1282 11.9163 31.1266 11.9162 31.125 11.9162C31.0932 11.9154 31.0422 11.9062 30.9877 11.8716C30.976 11.8642 30.9641 11.8556 30.9523 11.8457C30.9516 11.8449 30.9509 11.8441 30.9502 11.8433L31.1045 11.689L31.1056 11.6879L31.125 11.6685L31.131 11.6625L31.1385 11.655L31.159 11.6345L31.3056 11.4879C31.3099 11.4922 31.3139 11.4966 31.3178 11.5011C31.356 11.5458 31.375 11.6028 31.375 11.655C31.375 11.6944 31.3638 11.7541 31.3209 11.8143C31.3158 11.8215 31.3103 11.8286 31.3042 11.8357C31.2995 11.8413 31.2946 11.8468 31.2893 11.8523ZM31.1015 11.6864L30.9484 11.8412C30.9398 11.8312 30.9322 11.8212 30.9254 11.8112C30.8834 11.7496 30.8735 11.6899 30.8735 11.655C30.8735 11.6236 30.8815 11.5724 30.914 11.5176C30.9186 11.5098 30.9237 11.5019 30.9294 11.494C30.9339 11.4878 30.9387 11.4816 30.9438 11.4753C30.9439 11.4752 30.9441 11.4751 30.9442 11.4749C30.9587 11.4628 30.9734 11.4527 30.9878 11.4443C31.0403 11.4136 31.0905 11.405 31.125 11.405C31.1542 11.405 31.1813 11.4103 31.2072 11.4206C31.2295 11.4294 31.2577 11.4446 31.2871 11.4704C31.292 11.4747 31.2968 11.4792 31.3017 11.484L31.1561 11.6312L31.1326 11.655L31.1281 11.6596L31.125 11.6627L31.103 11.6849L31.1015 11.6864ZM16.6946 36.5138C16.6934 36.5126 16.6922 36.5113 16.691 36.5101C16.6482 36.4646 16.625 36.4014 16.625 36.3435C16.625 36.2968 16.6342 36.2656 16.641 36.2484C16.6482 36.2304 16.6578 36.2148 16.6706 36.2006L16.8291 36.3435L16.8445 36.3574L16.8474 36.3599L16.6958 36.5149C16.6954 36.5146 16.695 36.5142 16.6946 36.5138ZM16.8731 36.6014C16.8562 36.6014 16.7835 36.5972 16.7015 36.5205L16.8559 36.3676L16.875 36.3848L16.9622 36.4634L17.0248 36.5291C16.9558 36.5947 16.8959 36.601 16.875 36.6014C16.8743 36.6014 16.8737 36.6014 16.8731 36.6014ZM17.0749 36.4777L16.9707 36.3829L16.9349 36.3435L16.909 36.3151L17.0591 36.1664C17.0935 36.2011 17.125 36.26 17.125 36.3435C17.125 36.3997 17.1057 36.4439 17.0749 36.4777ZM17.038 36.165L16.9005 36.3057L16.8986 36.3036L16.875 36.2777L16.7408 36.1301C16.7457 36.1256 16.7541 36.119 16.7703 36.1122C16.7865 36.1053 16.8217 36.0935 16.875 36.0935C16.93 36.0935 16.9676 36.1057 16.9883 36.1147C17.0089 36.1236 17.0281 36.136 17.0477 36.1551L17.038 36.165L17.038 36.165ZM36.5268 16.7076C36.5268 16.7076 36.5268 16.7076 36.5268 16.7076C36.5277 16.7085 36.5286 16.7094 36.5295 16.7104C36.5686 16.7517 36.5935 16.8123 36.5935 16.875C36.5935 16.9069 36.5876 16.935 36.5774 16.9605C36.5693 16.9808 36.5561 17.0053 36.5347 17.0311C36.529 17.0379 36.5228 17.0448 36.516 17.0517L36.3502 16.8877L36.3472 16.8848L36.3435 16.8811L36.3375 16.8752L36.3374 16.875L36.3289 16.8667L36.1599 16.6995C36.1609 16.6983 36.1619 16.6971 36.1629 16.6959C36.1764 16.6845 36.19 16.6748 36.2033 16.6667C36.2578 16.6335 36.3095 16.625 36.3435 16.625C36.3726 16.625 36.4006 16.6303 36.4282 16.6413C36.4513 16.6505 36.4803 16.6662 36.5107 16.6926C36.5127 16.6944 36.5147 16.6961 36.5167 16.698C36.5196 16.7007 36.5226 16.7035 36.5256 16.7064C36.526 16.7068 36.5264 16.7072 36.5268 16.7076ZM36.1336 16.7372C36.1406 16.7254 36.1487 16.7135 36.1582 16.7017L36.326 16.8695L36.3315 16.875L36.3346 16.8781L36.3435 16.887L36.3442 16.8878L36.3472 16.8907L36.5121 17.0556C36.5081 17.0596 36.5041 17.0634 36.5 17.067C36.4482 17.1129 36.3894 17.1294 36.3435 17.1302C36.3416 17.1302 36.3398 17.1302 36.338 17.1302C36.2973 17.1298 36.2342 17.1163 36.1724 17.0635C36.1717 17.0629 36.171 17.0623 36.1703 17.0617C36.1666 17.0584 36.1629 17.0551 36.1592 17.0515C36.1575 17.0499 36.1558 17.0483 36.1541 17.0466C36.152 17.0444 36.15 17.0421 36.1481 17.0399C36.1328 17.0223 36.1223 17.0047 36.1145 16.9867C36.1049 16.9646 36.0935 16.9275 36.0935 16.875C36.0935 16.8403 36.1022 16.7899 36.1336 16.7372ZM38.4201 23.812L38.2522 23.9798L38.2507 23.9813L38.25 23.982L38.245 23.987L38.232 24L38.2192 24.0128L38.0664 24.1656C38.0636 24.1628 38.0608 24.1599 38.0582 24.1569C38.0226 24.1168 38 24.0597 38 24C38 23.9709 38.0053 23.9429 38.0163 23.9153C38.0247 23.8942 38.0385 23.8682 38.061 23.8407C38.0662 23.8344 38.0718 23.828 38.0779 23.8215C38.0789 23.8205 38.08 23.8194 38.081 23.8183C38.0814 23.8179 38.0819 23.8175 38.0823 23.8171C38.0833 23.8161 38.0844 23.8151 38.0854 23.8141C38.131 23.7721 38.1915 23.75 38.25 23.75C38.2865 23.75 38.3378 23.7595 38.3904 23.7915C38.4003 23.7975 38.4102 23.8043 38.4201 23.812ZM38.2667 23.9937L38.4305 23.8207C38.4407 23.833 38.4495 23.8453 38.457 23.8575C38.4908 23.9119 38.5 23.9643 38.5 24C38.5 24.0418 38.4876 24.1026 38.443 24.1625C38.4412 24.165 38.4393 24.1675 38.4373 24.1699C38.4362 24.1713 38.4351 24.1727 38.434 24.1741C38.4303 24.1785 38.4265 24.183 38.4224 24.1875C38.4142 24.1947 38.4059 24.2012 38.3978 24.2071C38.3376 24.2504 38.2819 24.2587 38.2537 24.259C38.2525 24.259 38.2513 24.259 38.25 24.259C38.2158 24.2585 38.1554 24.2476 38.0917 24.19C38.0898 24.1882 38.0878 24.1864 38.0859 24.1846L38.2337 24.0285L38.25 24.0113L38.2595 24.0013L38.2607 24L38.2649 23.9956L38.2667 23.9937ZM9.92005 23.812L9.75219 23.9798L9.75074 23.9813L9.75 23.982L9.74503 23.987L9.732 24L9.71921 24.0128L9.56639 24.1656C9.56358 24.1628 9.56084 24.1599 9.55817 24.1569C9.52262 24.1168 9.5 24.0597 9.5 24C9.5 23.9709 9.5053 23.9429 9.51629 23.9153C9.52467 23.8942 9.5385 23.8682 9.561 23.8407C9.56617 23.8344 9.5718 23.828 9.57792 23.8215C9.57894 23.8205 9.57997 23.8194 9.58102 23.8183C9.58144 23.8179 9.58186 23.8175 9.58228 23.8171C9.58333 23.8161 9.58438 23.8151 9.58544 23.8141C9.63104 23.7721 9.69151 23.75 9.75 23.75C9.78645 23.75 9.83782 23.7595 9.89037 23.7915C9.90025 23.7975 9.91018 23.8043 9.92005 23.812ZM9.76665 23.9937L9.93045 23.8207C9.94067 23.833 9.94948 23.8453 9.95705 23.8575C9.9908 23.9119 10 23.9643 10 24C10 24.0417 9.98763 24.1026 9.94299 24.1625C9.94115 24.165 9.93927 24.1675 9.93732 24.1699C9.93623 24.1713 9.93513 24.1727 9.934 24.1741C9.93033 24.1785 9.92647 24.183 9.92241 24.1875C9.91416 24.1947 9.90593 24.2012 9.89778 24.2071C9.83762 24.2504 9.78187 24.2587 9.75371 24.259C9.75251 24.259 9.75127 24.259 9.75 24.259C9.71584 24.2585 9.65542 24.2476 9.59169 24.19C9.58975 24.1882 9.58781 24.1864 9.58586 24.1846L9.73366 24.0285L9.75 24.0113L9.75946 24.0013L9.76065 24L9.76487 23.9956L9.76665 23.9937ZM11.655 30.875C11.6879 30.875 11.7219 30.8818 11.7521 30.894C11.7814 30.9059 11.7978 30.9192 11.803 30.9239L11.6564 31.085L11.655 31.0837L11.4938 30.9385C11.5021 30.9306 11.5254 30.9114 11.5638 30.8954C11.604 30.8787 11.6381 30.875 11.655 30.875ZM11.5927 31.125L11.6063 31.14L11.4722 31.2875C11.4462 31.2579 11.4309 31.2296 11.4221 31.2072C11.4118 31.1813 11.4065 31.1542 11.4065 31.125C11.4065 31.0959 11.4118 31.0686 11.4223 31.042C11.4295 31.0238 11.441 31.0014 11.4592 30.9774L11.5927 31.125ZM11.6467 31.1847L11.655 31.1938L11.7873 31.3401C11.7692 31.3565 11.7258 31.3808 11.6631 31.3802C11.6604 31.3802 11.6577 31.3801 11.655 31.38C11.6008 31.3776 11.5454 31.3561 11.5026 31.3182L11.6467 31.1847ZM11.8594 31.2679L11.7061 31.1297L11.7112 31.125L11.8635 30.9838C11.8706 30.9915 11.905 31.0349 11.905 31.125C11.905 31.1581 11.8982 31.1918 11.8863 31.2212C11.8747 31.2497 11.8623 31.2647 11.8594 31.2679Z" fill="#00CA00" stroke="#00CA00" stroke-width="2"/>
<path d="M36.1512 31.2869L36.1483 31.29C36.1482 31.2899 36.1481 31.2899 36.1481 31.2898C36.1329 31.2722 36.1223 31.2546 36.1145 31.2366C36.105 31.2145 36.0935 31.1774 36.0935 31.1249C36.0935 31.0902 36.1022 31.0398 36.1336 30.9871C36.1406 30.9753 36.1488 30.9635 36.1582 30.9516L36.3151 31.1085L36.3 31.1249L36.294 31.1315L36.1512 31.2869ZM36.3178 31.1056L36.16 30.9494C36.1609 30.9482 36.1619 30.947 36.163 30.9458C36.1765 30.9344 36.19 30.9248 36.2034 30.9166C36.2578 30.8834 36.3095 30.8749 36.3435 30.8749C36.4002 30.8749 36.4465 30.8947 36.4818 30.9272L36.3466 31.0742L36.3435 31.0776L36.3178 31.1056ZM36.3656 31.1589L36.5121 31.3055C36.5082 31.3095 36.5041 31.3133 36.5 31.3169C36.4483 31.3628 36.3894 31.3793 36.3435 31.3801C36.3417 31.3801 36.3398 31.3801 36.338 31.3801C36.2998 31.3797 36.2418 31.3678 36.1837 31.3226L36.3435 31.1788L36.345 31.1774L36.3656 31.1589ZM36.3688 31.156L36.3975 31.1302L36.4034 31.1249L36.5483 30.9944C36.5704 31.019 36.5935 31.061 36.5935 31.1249C36.5935 31.1568 36.5876 31.1849 36.5774 31.2105C36.5693 31.2307 36.5561 31.2552 36.5347 31.281C36.5291 31.2878 36.5229 31.2947 36.516 31.3016L36.3688 31.156ZM11.655 16.6249C11.688 16.6249 11.722 16.6317 11.7521 16.6439C11.7814 16.6558 11.7979 16.6691 11.8031 16.6738L11.6565 16.8349L11.655 16.8336L11.4939 16.6884C11.5338 16.6494 11.5915 16.6249 11.655 16.6249ZM11.5928 16.8749L11.6064 16.89L11.4722 17.0374C11.4462 17.0078 11.4309 16.9795 11.4221 16.9571C11.4119 16.9312 11.4065 16.9041 11.4065 16.8749C11.4065 16.8458 11.4118 16.8185 11.4223 16.7919C11.4295 16.7737 11.441 16.7513 11.4593 16.7273L11.5928 16.8749ZM11.6468 16.9346L11.655 16.9437L11.7874 17.09C11.7693 17.1064 11.7258 17.1307 11.6631 17.1301C11.6604 17.1301 11.6577 17.13 11.655 17.1299C11.6008 17.1275 11.5455 17.106 11.5027 17.0681L11.6468 16.9346ZM11.8595 17.0178L11.7061 16.8796L11.7112 16.8749L11.8635 16.7337C11.8707 16.7414 11.905 16.7848 11.905 16.8749C11.905 16.908 11.8982 16.9417 11.8863 16.9711C11.8748 16.9996 11.8623 17.0146 11.8595 17.0178Z" fill="#00CA00" stroke="#00CA00" stroke-width="2"/>
<path d="M17.0474 11.4696L16.8972 11.6213L16.8812 11.6374L16.875 11.6437L16.8694 11.6494L16.8653 11.6535L16.8638 11.655L16.844 11.675L16.6949 11.8256C16.6915 11.8222 16.6883 11.8188 16.6851 11.8152C16.6454 11.7705 16.6239 11.7105 16.6235 11.655C16.6235 11.6545 16.6235 11.654 16.6235 11.6535C16.6235 11.6192 16.6331 11.5579 16.6793 11.4939C16.684 11.4874 16.689 11.4809 16.6945 11.4744C16.6967 11.4717 16.6991 11.469 16.7015 11.4663C16.7029 11.4647 16.7043 11.4632 16.7057 11.4617C16.7131 11.4558 16.7231 11.4489 16.7357 11.4418C16.7437 11.4374 16.7527 11.4329 16.7628 11.4286C16.802 11.4119 16.8418 11.405 16.875 11.405C16.9128 11.405 16.9663 11.4151 17.0206 11.4502C17.0295 11.456 17.0385 11.4624 17.0474 11.4696ZM16.9065 11.6316L17.0548 11.4758C17.0643 11.4869 17.0726 11.4981 17.0798 11.5092C17.1147 11.5629 17.1247 11.6154 17.125 11.6535C17.125 11.654 17.125 11.6545 17.125 11.655C17.125 11.6947 17.1142 11.754 17.071 11.8144C17.0704 11.8151 17.0699 11.8159 17.0693 11.8166C17.0649 11.8227 17.0601 11.8288 17.055 11.8349C17.0524 11.838 17.0497 11.8411 17.0469 11.8442C17.0372 11.8525 17.0275 11.8599 17.018 11.8664C16.9604 11.9059 16.9071 11.914 16.8787 11.9143C16.8775 11.9143 16.8763 11.9143 16.875 11.9143C16.8395 11.9139 16.7784 11.9024 16.7149 11.8447C16.7129 11.8429 16.7109 11.841 16.7088 11.8391L16.8543 11.6864L16.875 11.6646L16.8797 11.6597L16.8842 11.655L16.8856 11.6535L16.8915 11.6473L16.9065 11.6316ZM31.125 36.0935C31.1542 36.0935 31.1813 36.0988 31.2072 36.109C31.2312 36.1185 31.2618 36.1353 31.2937 36.1648L31.1455 36.3145L31.125 36.2959L30.9676 36.1527C31.0152 36.112 31.0738 36.0935 31.125 36.0935ZM31.1874 36.2881L31.2998 36.1706C31.3004 36.1712 31.3011 36.1718 31.3017 36.1725L31.1874 36.2881ZM31.0791 36.3435L31.0991 36.3614L30.9464 36.5156C30.9001 36.4697 30.875 36.4038 30.875 36.3435C30.875 36.2967 30.8842 36.2656 30.891 36.2483C30.8982 36.2303 30.9078 36.2148 30.9206 36.2006L31.0791 36.3435ZM31.115 36.5962C31.0783 36.5959 31.0262 36.5841 30.9746 36.5416L31.125 36.4048L31.1361 36.3948L31.2001 36.4525L31.2737 36.53C31.2241 36.5771 31.1678 36.5941 31.125 36.5961C31.1216 36.5962 31.1182 36.5963 31.115 36.5962ZM31.1849 36.3504L31.1925 36.3435L31.3382 36.2111C31.3414 36.2159 31.348 36.2266 31.3549 36.2434C31.3683 36.2757 31.375 36.3117 31.375 36.3435C31.375 36.3996 31.3557 36.4439 31.3249 36.4776L31.1849 36.3504Z" fill="#00CA00" stroke="#00CA00" stroke-width="2"/>
<path d="M23.8551 38.4596C23.8515 38.4571 23.8478 38.4545 23.8442 38.4517L23.9482 38.3573L24 38.3102L24.0043 38.3063L24.0086 38.3024L24.0589 38.3555L24.1478 38.4493C24.1163 38.4792 24.0624 38.5044 24 38.5051C23.9544 38.5056 23.9043 38.493 23.8551 38.4596ZM24.171 38.4266L24.0278 38.285L24.0588 38.2569L24.0664 38.2499L24.2135 38.1163C24.2166 38.1211 24.2229 38.1313 24.2295 38.1473C24.2427 38.1789 24.25 38.2156 24.25 38.2499C24.25 38.2791 24.2447 38.3062 24.2344 38.3321C24.2264 38.3524 24.2131 38.3775 24.1913 38.4041C24.1852 38.4115 24.1785 38.419 24.171 38.4266ZM23.9745 38.2323L23.8153 38.0748C23.8167 38.073 23.8181 38.0713 23.8196 38.0695C23.834 38.0576 23.8485 38.0475 23.8628 38.0392C23.9153 38.0085 23.9656 37.9999 24 37.9999C24.0331 37.9999 24.0668 38.0067 24.0962 38.0187C24.1247 38.0302 24.1397 38.0426 24.1429 38.0455L24.0056 38.1978L24 38.2041L23.9745 38.2323ZM23.8054 38.0879L23.9588 38.2498L23.9587 38.2499L23.9511 38.2584L23.8771 38.3405L23.809 38.4161C23.8074 38.414 23.8058 38.4119 23.8043 38.4098C23.762 38.3506 23.75 38.2909 23.75 38.2499C23.75 38.2155 23.7586 38.1652 23.7893 38.1127C23.7941 38.1045 23.7994 38.0962 23.8054 38.0879ZM23.8551 9.95955C23.8457 9.95315 23.8364 9.94599 23.8271 9.93801C23.8266 9.93745 23.8261 9.9369 23.8256 9.93634L23.9847 9.77717L24 9.79326L24.0033 9.79673L24.1478 9.94928C24.1163 9.97918 24.0624 10.0044 24 10.0051C23.9544 10.0056 23.9043 9.99303 23.8551 9.95955ZM23.8771 9.84046L23.809 9.91608C23.8074 9.91398 23.8058 9.91187 23.8043 9.90977C23.762 9.85065 23.75 9.79086 23.75 9.74991C23.75 9.72077 23.7553 9.69281 23.7663 9.66519C23.7745 9.64459 23.7879 9.61918 23.8096 9.59232L23.9588 9.74978L23.9587 9.74991L23.8771 9.84046ZM23.9745 9.73231L23.8203 9.57973C23.8227 9.57697 23.8253 9.57421 23.8279 9.57144C23.8289 9.57037 23.83 9.5693 23.831 9.56823C23.8325 9.56681 23.8339 9.56542 23.8354 9.56404C23.881 9.52199 23.9415 9.49991 24 9.49991C24.0331 9.49991 24.0668 9.50671 24.0962 9.51865C24.1247 9.53018 24.1397 9.54259 24.1429 9.54548L24 9.70406L23.9876 9.71786L23.982 9.724L23.9745 9.73231ZM24.0205 9.77778L24.0022 9.75968L24.0101 9.75181L24.012 9.74991L24.0157 9.74626L24.1806 9.58131C24.1839 9.58459 24.1871 9.58796 24.1901 9.59141C24.2293 9.63563 24.25 9.69316 24.25 9.74991C24.25 9.76404 24.2471 9.79467 24.2315 9.83333C24.2184 9.86575 24.2005 9.89331 24.1821 9.91458C24.1809 9.91594 24.1798 9.91728 24.1786 9.91859C24.1761 9.92138 24.1735 9.92405 24.171 9.9266L24.0205 9.77778Z" fill="#00CA00" stroke="#00CA00" stroke-width="2"/>
<mask id="path-9-inside-3_50_57" fill="white">
<path d="M33.5459 14.4539C33.2534 14.1614 32.7779 14.1614 32.4854 14.4539L24.3659 22.5734C24.8924 22.7099 25.2899 23.1074 25.4264 23.6339L33.5459 15.5144C33.8399 15.2204 33.8399 14.7464 33.5459 14.4539ZM23.6339 22.5734L14.4539 13.3934C14.1614 13.1009 13.6859 13.1009 13.3934 13.3934C13.1009 13.6859 13.1009 14.1614 13.3934 14.4539L22.5734 23.6339C22.7099 23.1074 23.1074 22.7099 23.6339 22.5734Z"/>
</mask>
<path d="M33.5459 14.4539C33.2534 14.1614 32.7779 14.1614 32.4854 14.4539L24.3659 22.5734C24.8924 22.7099 25.2899 23.1074 25.4264 23.6339L33.5459 15.5144C33.8399 15.2204 33.8399 14.7464 33.5459 14.4539ZM23.6339 22.5734L14.4539 13.3934C14.1614 13.1009 13.6859 13.1009 13.3934 13.3934C13.1009 13.6859 13.1009 14.1614 13.3934 14.4539L22.5734 23.6339C22.7099 23.1074 23.1074 22.7099 23.6339 22.5734Z" fill="#263238"/>
<path d="M33.5459 14.4539L32.1317 15.8682L32.1354 15.8718L33.5459 14.4539ZM32.4854 14.4539L33.8997 15.8682L32.4854 14.4539ZM24.3659 22.5734L22.9517 21.1592L20.4791 23.6319L23.864 24.5094L24.3659 22.5734ZM25.4264 23.6339L23.4905 24.1359L24.368 27.5208L26.8407 25.0482L25.4264 23.6339ZM33.5459 15.5144L34.9602 16.9287V16.9287L33.5459 15.5144ZM23.6339 22.5734L24.1359 24.5094L27.5208 23.6319L25.0482 21.1592L23.6339 22.5734ZM14.4539 13.3934L15.8682 11.9792L14.4539 13.3934ZM13.3934 14.4539L11.9792 15.8682L13.3934 14.4539ZM22.5734 23.6339L21.1592 25.0482L23.6319 27.5208L24.5094 24.1359L22.5734 23.6339ZM34.9602 13.0397C33.8866 11.9662 32.1448 11.9662 31.0712 13.0397L33.8997 15.8682C33.4111 16.3567 32.6203 16.3567 32.1317 15.8682L34.9602 13.0397ZM31.0712 13.0397L22.9517 21.1592L25.7802 23.9877L33.8997 15.8682L31.0712 13.0397ZM23.864 24.5094C23.7855 24.4891 23.7006 24.4441 23.6282 24.3717C23.5558 24.2993 23.5108 24.2144 23.4905 24.1359L27.3624 23.132C27.0437 21.9026 26.0973 20.9562 24.8679 20.6375L23.864 24.5094ZM26.8407 25.0482L34.9602 16.9287L32.1317 14.1002L24.0122 22.2197L26.8407 25.0482ZM34.9602 16.9287C36.0332 15.8556 36.0384 14.1125 34.9565 13.0361L32.1354 15.8718C31.6415 15.3804 31.6467 14.5853 32.1317 14.1002L34.9602 16.9287ZM25.0482 21.1592L15.8682 11.9792L13.0397 14.8077L22.2197 23.9877L25.0482 21.1592ZM15.8682 11.9792C14.7946 10.9057 13.0528 10.9057 11.9792 11.9792L14.8077 14.8077C14.3191 15.2962 13.5283 15.2962 13.0397 14.8077L15.8682 11.9792ZM11.9792 11.9792C10.9057 13.0528 10.9057 14.7946 11.9792 15.8682L14.8077 13.0397C15.2962 13.5283 15.2962 14.3191 14.8077 14.8077L11.9792 11.9792ZM11.9792 15.8682L21.1592 25.0482L23.9877 22.2197L14.8077 13.0397L11.9792 15.8682ZM24.5094 24.1359C24.4891 24.2144 24.4441 24.2993 24.3717 24.3717C24.2993 24.4441 24.2144 24.4891 24.1359 24.5094L23.132 20.6375C21.9026 20.9562 20.9562 21.9026 20.6375 23.132L24.5094 24.1359Z" fill="#00CA00" mask="url(#path-9-inside-3_50_57)"/>
<mask id="path-11-inside-4_50_57" fill="white">
<path d="M24 26.25C22.7595 26.25 21.75 25.2405 21.75 24C21.75 22.7595 22.7595 21.75 24 21.75C25.2405 21.75 26.25 22.7595 26.25 24C26.25 25.2405 25.2405 26.25 24 26.25ZM24 23.25C23.5875 23.25 23.25 23.5875 23.25 24C23.25 24.4125 23.5875 24.75 24 24.75C24.4125 24.75 24.75 24.4125 24.75 24C24.75 23.5875 24.4125 23.25 24 23.25Z"/>
</mask>
<path d="M24 26.25C22.7595 26.25 21.75 25.2405 21.75 24C21.75 22.7595 22.7595 21.75 24 21.75C25.2405 21.75 26.25 22.7595 26.25 24C26.25 25.2405 25.2405 26.25 24 26.25ZM24 23.25C23.5875 23.25 23.25 23.5875 23.25 24C23.25 24.4125 23.5875 24.75 24 24.75C24.4125 24.75 24.75 24.4125 24.75 24C24.75 23.5875 24.4125 23.25 24 23.25Z" fill="#263238"/>
<path d="M24 24.25C23.8641 24.25 23.75 24.1359 23.75 24H19.75C19.75 26.3451 21.6549 28.25 24 28.25V24.25ZM23.75 24C23.75 23.8641 23.8641 23.75 24 23.75V19.75C21.6549 19.75 19.75 21.6549 19.75 24H23.75ZM24 23.75C24.1359 23.75 24.25 23.8641 24.25 24H28.25C28.25 21.6549 26.3451 19.75 24 19.75V23.75ZM24.25 24C24.25 24.1359 24.1359 24.25 24 24.25V28.25C26.3451 28.25 28.25 26.3451 28.25 24H24.25ZM24 21.25C22.4829 21.25 21.25 22.4829 21.25 24H25.25C25.25 24.6921 24.6921 25.25 24 25.25V21.25ZM21.25 24C21.25 25.5171 22.4829 26.75 24 26.75V22.75C24.6921 22.75 25.25 23.3079 25.25 24H21.25ZM24 26.75C25.5171 26.75 26.75 25.5171 26.75 24H22.75C22.75 23.3079 23.3079 22.75 24 22.75V26.75ZM26.75 24C26.75 22.4829 25.5171 21.25 24 21.25V25.25C23.3079 25.25 22.75 24.6921 22.75 24H26.75Z" fill="#00CA00" mask="url(#path-11-inside-4_50_57)"/>
<path d="M10.25 6.75C10.25 6.61022 10.3602 6.5 10.5 6.5C10.6398 6.5 10.75 6.61022 10.75 6.75C10.75 6.88978 10.6398 7 10.5 7C10.3602 7 10.25 6.88978 10.25 6.75Z" fill="#00CA00" stroke="#00CA00" stroke-width="2"/>
</svg>
