<svg width="40" height="40" viewBox="0 0 40 40" fill="none" xmlns="http://www.w3.org/2000/svg">
<path d="M29.9998 8.33335H31.6665V10C31.6665 10.442 31.8421 10.866 32.1547 11.1785C32.4672 11.4911 32.8912 11.6667 33.3332 11.6667C33.7752 11.6667 34.1991 11.4911 34.5117 11.1785C34.8243 10.866 34.9998 10.442 34.9998 10V8.33335H36.6665C37.1085 8.33335 37.5325 8.15776 37.845 7.8452C38.1576 7.53263 38.3332 7.10871 38.3332 6.66668C38.3332 6.22466 38.1576 5.80073 37.845 5.48817C37.5325 5.17561 37.1085 5.00002 36.6665 5.00002H34.9998V3.33335C34.9998 2.89132 34.8243 2.4674 34.5117 2.15484C34.1991 1.84228 33.7752 1.66668 33.3332 1.66668C32.8912 1.66668 32.4672 1.84228 32.1547 2.15484C31.8421 2.4674 31.6665 2.89132 31.6665 3.33335V5.00002H29.9998C29.5578 5.00002 29.1339 5.17561 28.8213 5.48817C28.5088 5.80073 28.3332 6.22466 28.3332 6.66668C28.3332 7.10871 28.5088 7.53263 28.8213 7.8452C29.1339 8.15776 29.5578 8.33335 29.9998 8.33335ZM20.8332 10H19.1665C17.8404 10 16.5687 10.5268 15.631 11.4645C14.6933 12.4022 14.1665 13.6739 14.1665 15V25C14.1665 26.3261 14.6933 27.5979 15.631 28.5356C16.5687 29.4732 17.8404 30 19.1665 30H20.8332C22.1593 30 23.431 29.4732 24.3687 28.5356C25.3064 27.5979 25.8332 26.3261 25.8332 25V15C25.8332 13.6739 25.3064 12.4022 24.3687 11.4645C23.431 10.5268 22.1593 10 20.8332 10ZM22.4998 25C22.4998 25.442 22.3242 25.866 22.0117 26.1785C21.6991 26.4911 21.2752 26.6667 20.8332 26.6667H19.1665C18.7245 26.6667 18.3006 26.4911 17.988 26.1785C17.6754 25.866 17.4998 25.442 17.4998 25V15C17.4998 14.558 17.6754 14.1341 17.988 13.8215C18.3006 13.5089 18.7245 13.3334 19.1665 13.3334H20.8332C21.2752 13.3334 21.6991 13.5089 22.0117 13.8215C22.3242 14.1341 22.4998 14.558 22.4998 15V25ZM35.9998 15C35.7853 15.0438 35.5815 15.1293 35.4001 15.2518C35.2187 15.3743 35.0631 15.5314 34.9424 15.714C34.8217 15.8967 34.7381 16.1013 34.6965 16.3162C34.6549 16.5312 34.656 16.7522 34.6998 16.9667C35.3506 20.127 34.9649 23.413 33.6 26.3367C32.2352 29.2605 29.9639 31.6662 27.1234 33.1968C24.2829 34.7274 21.0245 35.3012 17.832 34.8331C14.6395 34.365 11.683 32.88 9.40145 30.5984C7.11987 28.3168 5.63482 25.3604 5.16673 22.1678C4.69865 18.9753 5.27249 15.717 6.80306 12.8765C8.33364 10.0359 10.7394 7.76468 13.6631 6.39983C16.5869 5.03497 19.8728 4.64929 23.0332 5.30002C23.4752 5.38842 23.9342 5.29761 24.3093 5.04756C24.6844 4.79752 24.9448 4.40871 25.0332 3.96668C25.1216 3.52466 25.0308 3.06561 24.7807 2.69054C24.5307 2.31547 24.1419 2.05509 23.6998 1.96668C22.4801 1.73944 21.2402 1.6389 19.9998 1.66668C16.3739 1.66668 12.8293 2.74191 9.81439 4.75641C6.79949 6.7709 4.44966 9.63418 3.06205 12.9842C1.67445 16.3341 1.31139 20.0204 2.01878 23.5767C2.72618 27.133 4.47226 30.3997 7.03622 32.9636C9.60018 35.5276 12.8669 37.2737 16.4232 37.9811C19.9795 38.6885 23.6657 38.3254 27.0157 36.9378C30.3657 35.5502 33.229 33.2004 35.2435 30.1855C37.2579 27.1706 38.3332 23.626 38.3332 20C38.3367 18.7685 38.2138 17.5398 37.9665 16.3334C37.9266 16.1158 37.8438 15.9085 37.7229 15.7233C37.602 15.5381 37.4455 15.3788 37.2625 15.2547C37.0794 15.1306 36.8735 15.0442 36.6568 15.0005C36.44 14.9567 36.2167 14.9566 35.9998 15Z" fill="white"/>
</svg>
